<svg width="16" height="16" viewBox="0 0 16 16" fill="none" xmlns="http://www.w3.org/2000/svg">
<path d="M13.6568 2.34314C12.1458 0.832151 10.1368 0 7.99995 0C5.86309 0 3.85416 0.832151 2.34317 2.34314C0.83212 3.85413 0 5.86309 0 7.99998C0 10.1263 0.82512 12.1282 2.32336 13.6369C2.43152 13.7458 2.60742 13.7463 2.7162 13.6383C2.82501 13.5301 2.82564 13.3543 2.71755 13.2454C1.32337 11.8415 0.55559 9.97863 0.55559 7.99998C0.55559 3.89513 3.89513 0.555591 7.99998 0.555591C12.1048 0.555591 15.4443 3.89513 15.4443 7.99998C15.4443 12.1048 12.1048 15.4444 7.99995 15.4444C6.29459 15.4444 4.69019 14.8834 3.36017 13.822C3.24026 13.7264 3.06548 13.746 2.96979 13.8659C2.87408 13.9858 2.89373 14.1606 3.0137 14.2563C4.44313 15.397 6.1674 16 7.99998 16C10.1368 16 12.1458 15.1678 13.6568 13.6569C15.1678 12.1459 16 10.1369 16 8.00002C16 5.86315 15.1678 3.85413 13.6568 2.34314Z" fill="white"/>
<path d="M12.8762 6.07752C12.7381 5.72765 12.5613 5.39149 12.3506 5.07834C12.2649 4.95103 12.0923 4.91725 11.9651 5.00293C11.8377 5.08862 11.804 5.26121 11.8897 5.38849C12.078 5.66837 12.236 5.96877 12.3594 6.28142C12.4025 6.39064 12.5071 6.45733 12.6179 6.45733C12.6518 6.45733 12.6863 6.45108 12.7198 6.43789C12.8625 6.38155 12.9325 6.22024 12.8762 6.07752Z" fill="white"/>
<path d="M10.1873 12.4643C10.1276 12.323 9.96458 12.2569 9.82326 12.3166C9.24586 12.5608 8.6324 12.6847 7.99987 12.6847C5.41669 12.6847 3.31511 10.5831 3.31511 7.99995C3.31511 7.56196 3.37546 7.12846 3.49446 6.71149C3.53658 6.56396 3.45108 6.41024 3.30358 6.36815C3.15589 6.32609 3.0023 6.41143 2.96021 6.55902C2.82705 7.02558 2.75952 7.51039 2.75952 7.99992C2.75952 10.8895 5.11032 13.2403 7.99987 13.2403C8.70715 13.2403 9.39349 13.1017 10.0397 12.8284C10.181 12.7685 10.2472 12.6056 10.1873 12.4643Z" fill="white"/>
<path d="M11.8224 2.66375C11.6626 2.38737 11.4074 2.27278 11.2293 2.21065C11.1799 2.1934 11.1266 2.19047 11.0756 2.20222L11.0542 2.20715C10.7395 2.2794 10.414 2.15675 10.2252 1.89456C10.1936 1.85069 10.1499 1.81694 10.0994 1.79753C9.92647 1.73109 9.66228 1.65481 9.3666 1.75994C8.78863 1.96547 8.3372 2.41375 8.12801 2.98984C8.09863 3.07074 8.07517 3.15259 8.05623 3.23496C7.94382 3.09334 7.81604 2.96162 7.67367 2.84203C7.58389 2.76665 7.48426 2.70593 7.37751 2.66162C7.05711 2.52859 6.68645 2.56509 6.38596 2.75934L6.27724 2.82959C6.06924 2.96412 5.80255 2.96087 5.59784 2.82121L5.53324 2.77715C5.15056 2.51609 4.65009 2.52156 4.28803 2.79068C4.27256 2.80221 4.25716 2.81424 4.24178 2.8269C4.00647 3.02112 3.80735 3.2518 3.64994 3.51255C3.57063 3.6439 3.61288 3.81464 3.74419 3.89393C3.8756 3.97318 4.04628 3.93099 4.12556 3.79968C4.2505 3.59274 4.40856 3.40962 4.59537 3.25546C4.60331 3.2489 4.61134 3.24265 4.61944 3.23662C4.79153 3.10868 5.03293 3.10846 5.22012 3.23615L5.28471 3.28021C5.67462 3.54618 6.18265 3.5524 6.57883 3.29618L6.68755 3.22593C6.83452 3.13093 7.0128 3.11181 7.16436 3.17477C7.21955 3.19771 7.2693 3.22802 7.3163 3.26752C7.83654 3.70449 8.11213 4.34511 8.07254 5.0252C8.01017 6.09622 7.12136 6.9736 6.04902 7.02269C5.46081 7.04966 4.90334 6.84128 4.47919 6.43607C4.05475 6.0306 3.82097 5.48417 3.82097 4.89745C3.82097 4.75733 3.83463 4.61726 3.86163 4.48114C3.89141 4.33061 3.7936 4.18442 3.64307 4.15464C3.49291 4.1248 3.34641 4.22264 3.3166 4.37314C3.28263 4.54473 3.26538 4.72117 3.26538 4.89742C3.26538 5.63738 3.56013 6.32647 4.09538 6.83775C4.59962 7.31947 5.25299 7.58059 5.94705 7.58056C5.98937 7.58056 6.0318 7.57959 6.0744 7.57762C6.73374 7.54744 7.35798 7.27306 7.83217 6.80503C8.28398 6.3591 8.5611 5.77466 8.61954 5.15076C8.84785 5.37457 9.12766 5.54313 9.44375 5.64182C9.64078 5.70335 9.84425 5.73385 10.0477 5.73385C10.3402 5.73385 10.6324 5.67066 10.9048 5.54557C11.3665 5.33345 11.7304 4.96201 11.9294 4.49967C12.1882 3.89849 12.1492 3.2293 11.8224 2.66375ZM11.4191 4.28005C11.1221 4.97026 10.327 5.33542 9.60938 5.11148C9.21563 4.98857 8.89832 4.71811 8.71585 4.34989C8.53329 3.98143 8.50998 3.56574 8.65026 3.17943C8.80263 2.75978 9.13157 2.43318 9.55269 2.2834C9.58994 2.27018 9.62772 2.26344 9.66872 2.26344C9.71684 2.26344 9.76931 2.27272 9.83034 2.29168C10.1422 2.66903 10.6319 2.84887 11.1152 2.76159C11.2288 2.80949 11.2965 2.86418 11.3413 2.94174C11.5795 3.35387 11.6078 3.84161 11.4191 4.28005Z" fill="white"/>
<path d="M14.0442 8.51762C14.087 7.89338 13.7743 7.28938 13.2234 6.96751C12.6725 6.64563 11.9927 6.66979 11.47 7.01366C11.1865 6.85366 10.8578 6.81107 10.5423 6.89388C10.2205 6.97832 9.9509 7.18301 9.78312 7.47019C9.44722 8.04513 9.62562 8.78109 10.1774 9.141C10.1739 9.19218 10.171 9.24296 10.1681 9.29293C10.1401 9.78121 10.1113 10.2861 9.58609 11.185C9.50868 11.3175 9.55331 11.4876 9.68581 11.565L10.9556 12.3069C10.9985 12.3319 11.0469 12.3448 11.0957 12.3448C11.1193 12.3448 11.143 12.3418 11.1663 12.3357C11.2375 12.3169 11.2984 12.2707 11.3356 12.2071C11.7412 11.5128 12.0851 11.2049 12.3394 11.0142C12.4622 10.9221 12.487 10.748 12.395 10.6253C12.303 10.5026 12.1289 10.4777 12.0061 10.5697C11.6259 10.8549 11.3092 11.2064 11.0006 11.6897L10.2011 11.2226C10.6606 10.3558 10.696 9.7938 10.7222 9.33521C10.8158 9.34549 10.9104 9.34584 11.0043 9.33484C11.1433 9.54134 11.3272 9.71415 11.5445 9.84115C11.7619 9.96815 12.0027 10.0434 12.2508 10.0631C12.3546 10.3108 12.5369 10.5213 12.7714 10.6583C12.9684 10.7734 13.1843 10.8281 13.3975 10.8281C13.826 10.8281 14.2436 10.6071 14.4749 10.2112C14.818 9.6239 14.6244 8.8684 14.0442 8.51762ZM13.9951 9.93102C13.8033 10.2594 13.3801 10.3705 13.0516 10.1787C12.883 10.0802 12.7673 9.92071 12.7257 9.72962C12.6978 9.60143 12.5843 9.5109 12.4544 9.5109C12.4496 9.5109 12.4447 9.51102 12.4399 9.51127C12.2246 9.52246 12.0115 9.47065 11.8247 9.36149C11.6379 9.25231 11.4882 9.09243 11.3921 8.89915C11.3315 8.77731 11.1916 8.71728 11.0616 8.75737C10.8746 8.81497 10.6789 8.79237 10.5103 8.69397C10.182 8.50209 10.0709 8.07888 10.2627 7.75044C10.3557 7.59141 10.505 7.47804 10.6832 7.43125C10.8614 7.38444 11.0472 7.40991 11.2062 7.50285C11.2386 7.52182 11.2702 7.544 11.3001 7.56885C11.4045 7.65566 11.5565 7.65428 11.6593 7.56547C12.0179 7.25569 12.5338 7.20813 12.9431 7.44725C13.3523 7.68635 13.5643 8.15909 13.4705 8.62368C13.4436 8.75684 13.5169 8.88993 13.6439 8.93825C13.6803 8.95209 13.7151 8.96865 13.7474 8.98759C13.7474 8.98759 13.7474 8.98759 13.7475 8.98759C14.0759 9.17943 14.187 9.60265 13.9951 9.93102Z" fill="white"/>
<path d="M7.87238 10.663C8.0258 10.663 8.15016 10.5386 8.15016 10.3852C8.15016 10.2318 8.0258 10.1074 7.87238 10.1074C7.71897 10.1074 7.5946 10.2318 7.5946 10.3852C7.5946 10.5386 7.71897 10.663 7.87238 10.663Z" fill="white"/>
<path d="M7.29426 9.55214C7.44767 9.55214 7.57204 9.42778 7.57204 9.27436C7.57204 9.12095 7.44767 8.99658 7.29426 8.99658C7.14085 8.99658 7.01648 9.12095 7.01648 9.27436C7.01648 9.42778 7.14085 9.55214 7.29426 9.55214Z" fill="white"/>
<path d="M6.50642 10.5521C6.65983 10.5521 6.7842 10.4278 6.7842 10.2744C6.7842 10.1209 6.65983 9.99658 6.50642 9.99658C6.353 9.99658 6.22864 10.1209 6.22864 10.2744C6.22864 10.4278 6.353 10.5521 6.50642 10.5521Z" fill="white"/>
<path d="M5.70869 10.9408C5.8621 10.9408 5.98647 10.8164 5.98647 10.663C5.98647 10.5096 5.8621 10.3853 5.70869 10.3853C5.55527 10.3853 5.43091 10.5096 5.43091 10.663C5.43091 10.8164 5.55527 10.9408 5.70869 10.9408Z" fill="white"/>
<path d="M5.26154 9.94081C5.41496 9.94081 5.53932 9.81645 5.53932 9.66303C5.53932 9.50962 5.41496 9.38525 5.26154 9.38525C5.10813 9.38525 4.98376 9.50962 4.98376 9.66303C4.98376 9.81645 5.10813 9.94081 5.26154 9.94081Z" fill="white"/>
<path d="M6.206 9.44081C6.35942 9.44081 6.48378 9.31645 6.48378 9.16303C6.48378 9.00962 6.35942 8.88525 6.206 8.88525C6.05259 8.88525 5.92822 9.00962 5.92822 9.16303C5.92822 9.31645 6.05259 9.44081 6.206 9.44081Z" fill="white"/>
<path d="M6.50642 8.44082C6.65983 8.44082 6.7842 8.31645 6.7842 8.16304C6.7842 8.00962 6.65983 7.88525 6.50642 7.88525C6.353 7.88525 6.22864 8.00962 6.22864 8.16304C6.22864 8.31645 6.353 8.44082 6.50642 8.44082Z" fill="white"/>
<path d="M5.206 8.94081C5.35942 8.94081 5.48378 8.81645 5.48378 8.66303C5.48378 8.50962 5.35942 8.38525 5.206 8.38525C5.05259 8.38525 4.92822 8.50962 4.92822 8.66303C4.92822 8.81645 5.05259 8.94081 5.206 8.94081Z" fill="white"/>
</svg>
