<svg width="16" height="14" viewBox="0 0 16 14" fill="none" xmlns="http://www.w3.org/2000/svg">
<path d="M15.452 6.68807H14.7938L13.8538 3.7124C13.7794 3.47729 13.5699 3.31844 13.3336 3.31844H11.7414V0.574493C11.7414 0.257251 11.496 0 11.1934 0H0.547977C0.245383 0 0 0.257251 0 0.574493V10.632C0 10.9493 0.245383 11.2065 0.547977 11.2065H1.07753C1.06897 11.2932 1.06449 11.3809 1.06449 11.47C1.06449 12.865 2.14606 14 3.47555 14C4.80488 14 5.88623 12.865 5.88623 11.47C5.88623 11.3809 5.88176 11.2932 5.87319 11.2065H10.6586C10.6501 11.2932 10.6455 11.3809 10.6455 11.47C10.6455 12.865 11.7271 14 13.0567 14C14.3861 14 15.4676 12.865 15.4676 11.47C15.4676 11.3809 15.4631 11.2931 15.4545 11.2064C15.7559 11.205 16 10.9484 16 10.632V7.26262C15.9999 6.94543 15.7546 6.68807 15.452 6.68807ZM12.9379 4.4676L13.6393 6.68812H11.7414V4.4676H12.9379ZM3.47555 12.8508C2.75039 12.8508 2.16039 12.2314 2.16039 11.47C2.16039 10.7086 2.75039 10.0892 3.47555 10.0892C4.20055 10.0892 4.79038 10.7086 4.79038 11.47C4.79038 12.2314 4.20055 12.8508 3.47555 12.8508ZM10.6455 10.0574H5.47455C5.04099 9.38372 4.30673 8.93989 3.47555 8.93989C2.64416 8.93989 1.90979 9.38372 1.47618 10.0574H1.09595V1.14915H10.6455V10.0574ZM13.0567 12.8508C12.3314 12.8508 11.7414 12.2314 11.7414 11.47C11.7414 10.7086 12.3314 10.0892 13.0567 10.0892C13.7817 10.0892 14.3717 10.7086 14.3717 11.47C14.3717 12.2314 13.7817 12.8508 13.0567 12.8508ZM13.0567 8.93989C12.5716 8.93989 12.12 9.09156 11.7414 9.35107V7.83722H14.398H14.904V9.84659C14.4614 9.29283 13.7976 8.93989 13.0567 8.93989Z" fill="white"/>
</svg>
