<svg width="12" height="16" viewBox="0 0 12 16" fill="none" xmlns="http://www.w3.org/2000/svg">
<path d="M10.9579 9.61507C10.8985 9.53999 10.808 9.4962 10.7123 9.4962H9.91653L10.0733 9.209C10.3202 8.75678 10.3106 8.22232 10.0477 7.77924C9.78474 7.33617 9.3202 7.07166 8.80503 7.07166H8.6233C8.67698 6.74337 8.61535 6.40353 8.43826 6.10512C8.17534 5.66207 7.71077 5.39756 7.1956 5.39756H6.82939C7.05905 5.1115 7.19692 4.74869 7.19692 4.35419C7.19692 3.54107 6.61253 2.86219 5.84178 2.71455C5.86374 2.23715 6.0213 1.06527 7.01707 0.596648C7.17358 0.522981 7.24074 0.336435 7.16707 0.179921C7.09344 0.0234367 6.90686 -0.0437813 6.75035 0.0298853C5.4195 0.656158 5.23335 2.12835 5.21357 2.71434C4.44227 2.86152 3.85736 3.54061 3.85736 4.35416C3.85736 4.74872 3.99524 5.1115 4.2249 5.39753H3.82982C3.31461 5.39753 2.85007 5.66204 2.58716 6.10509C2.41007 6.4035 2.34844 6.74334 2.40212 7.07163H2.22039C1.70519 7.07163 1.24068 7.33614 0.977732 7.77921C0.714817 8.22229 0.705237 8.75677 0.952092 9.20897L1.10888 9.49617H0.313198C0.217453 9.49617 0.12702 9.53996 0.0675713 9.61504C0.00818358 9.69012 -0.0136186 9.78823 0.00839848 9.8814L1.33194 15.4809C1.36532 15.6223 1.49149 15.7221 1.63671 15.7221H9.38874C9.53395 15.7221 9.66013 15.6223 9.69351 15.4809L11.017 9.8814C11.0391 9.78826 11.0173 9.69015 10.9579 9.61507ZM5.52716 3.31079C6.10249 3.31079 6.57052 3.77886 6.57052 4.35416C6.57052 4.92946 6.10246 5.39753 5.52716 5.39753C4.95183 5.39753 4.48379 4.92946 4.48379 4.35416C4.48379 3.77886 4.95183 3.31079 5.52716 3.31079ZM3.12582 6.42478C3.27478 6.17378 3.53794 6.02393 3.82985 6.02393H7.19563C7.43171 6.02393 7.64893 6.12204 7.80222 6.29234H6.19105C6.0181 6.29234 5.87786 6.43255 5.87786 6.60552C5.87786 6.7785 6.0181 6.91871 6.19105 6.91871H8.01149C8.00658 6.97017 7.99691 7.02136 7.98204 7.07163H3.04347C2.97975 6.85625 3.00754 6.62416 3.12582 6.42478ZM1.51646 8.09887C1.66542 7.84784 1.92855 7.69802 2.22045 7.69802H8.80503C9.0969 7.69802 9.36006 7.84787 9.50902 8.09887C9.65798 8.34987 9.66341 8.65268 9.52357 8.90884L9.20296 9.49614H1.82252L1.62876 9.14117H3.62217C3.79512 9.14117 3.93536 9.00096 3.93536 8.82799C3.93536 8.65501 3.79512 8.5148 3.62217 8.5148H1.40109C1.40137 8.37137 1.43969 8.22824 1.51646 8.09887ZM1.88452 15.0957L0.709044 10.1226H3.36067L3.78839 15.0957H1.88452ZM6.60842 15.0957H4.41703L3.98931 10.1226H7.03614L6.60842 15.0957ZM9.14096 15.0957H7.23709L7.66481 10.1226H10.3164L9.14096 15.0957Z" fill="white"/>
<path d="M4.89213 8.51514H4.71894C4.546 8.51514 4.40576 8.65535 4.40576 8.82832C4.40576 9.00129 4.546 9.1415 4.71894 9.1415H4.89213C5.06508 9.1415 5.20532 9.00129 5.20532 8.82832C5.20532 8.65535 5.06508 8.51514 4.89213 8.51514Z" fill="white"/>
</svg>
