<svg width="9" height="17" viewBox="0 0 9 17" fill="none" xmlns="http://www.w3.org/2000/svg">
<path d="M8.5911 3.30366H7.39323L7.98594 0.469074C8.02996 0.25858 7.89499 0.0522907 7.68455 0.00832314C7.47411 -0.0356963 7.26782 0.099269 7.22375 0.309711L6.59771 3.30366H0.389359C0.168587 3.30366 -0.00821815 3.48726 0.000295048 3.70804L0.482744 16.2036C0.490842 16.4126 0.662612 16.5779 0.871808 16.5779H8.10865C8.31785 16.5779 8.48962 16.4126 8.49771 16.2036L8.98016 3.70804C8.98868 3.48742 8.81198 3.30366 8.5911 3.30366ZM0.860855 5.81396L0.793995 4.0823H6.43493L6.07285 5.81396H0.860855ZM7.73407 15.7992H1.24639L0.890911 6.59261H8.08955L7.73407 15.7992ZM8.1196 5.81396H6.86832L7.23039 4.0823H8.18646L8.1196 5.81396Z" fill="white"/>
<path d="M2.04043 12.8216C2.25528 12.8133 2.42275 12.6324 2.41444 12.4175L2.26214 8.47243C2.25378 8.25752 2.07168 8.09043 1.85807 8.09842C1.64322 8.10673 1.47576 8.28763 1.48406 8.50249L1.63636 12.4476C1.64457 12.6592 1.82137 12.8292 2.04043 12.8216Z" fill="white"/>
<path d="M2.06254 13.3928C1.84768 13.4011 1.68022 13.582 1.68853 13.7969L1.7026 14.1603C1.7108 14.3719 1.88755 14.5419 2.10666 14.5343C2.32152 14.526 2.48898 14.3451 2.48067 14.1302L2.4666 13.7668C2.4583 13.552 2.27641 13.3852 2.06254 13.3928Z" fill="white"/>
</svg>
