<svg width="15" height="15" viewBox="0 0 15 15" fill="none" xmlns="http://www.w3.org/2000/svg">
<path d="M9.04855 0.0458309C8.6981 -0.00777875 8.34991 0.027961 8.00074 0.0685602C7.99175 0.0695791 7.98555 0.0744384 7.97701 0.0761627C4.91264 -0.546384 2.25027 2.7724 1.30684 5.47812C0.0966152 8.94888 1.10187 13.0914 4.6315 14.5399C8.32595 16.0561 12.2044 13.6305 13.7974 10.1105C15.6061 6.11431 13.5045 0.727395 9.04855 0.0458309ZM13.278 9.79566C11.9362 13.0332 8.358 15.2617 5.01981 14.0499C1.57166 12.7982 0.844077 8.87458 1.90919 5.65024C2.39553 4.17793 3.28841 2.86888 4.43635 1.87491C5.59639 0.870433 6.98029 0.596663 8.42934 0.586003C12.7615 0.765956 14.8708 5.95214 13.278 9.79566Z" fill="white"/>
<path d="M9.91425 1.93031C9.30003 1.72238 8.64265 1.66493 8.00077 1.67676C7.94809 1.6777 7.90781 1.69596 7.87312 1.72018C1.91557 1.24154 0.00118852 12.3606 6.29914 13.5736C9.4016 14.1711 11.8954 11.8951 12.7294 8.93805C13.4847 6.26008 12.7106 2.87694 9.91425 1.93031ZM7.43167 13.0868C4.41439 13.2133 2.76627 10.5654 2.96829 7.68865C3.17809 4.70061 5.16487 2.63453 7.89202 2.14475C7.92285 2.16121 7.95815 2.17242 8.00077 2.17312C14.5238 2.28128 13.2465 12.8431 7.43167 13.0868Z" fill="white"/>
<path d="M4.66229 9.58413C4.60478 9.58288 4.57938 9.54526 4.53676 9.51289C4.49602 9.48185 4.45581 9.46978 4.40555 9.46876C4.35734 9.46774 4.34449 9.55082 4.39392 9.55772C4.49761 9.57245 4.53585 9.69245 4.64619 9.70804C4.73492 9.72051 4.74951 9.58609 4.66229 9.58413Z" fill="white"/>
<path d="M12.1165 6.66887C12.0711 6.56048 11.9428 6.42818 11.8696 6.34494C11.7492 6.20778 11.7779 5.96842 11.7302 5.79779C11.6935 5.66659 11.5963 5.57136 11.4933 5.48366C11.6811 5.27792 11.7288 4.99577 11.4638 4.65295C11.3495 4.50497 10.991 4.29602 10.9527 4.11426C10.9158 3.93925 10.8982 3.81283 10.7915 3.67096C10.6134 3.43419 10.0625 3.57722 9.82797 3.54352C9.77204 3.53545 9.72934 3.56602 9.70614 3.60677C9.61529 3.49509 9.51138 3.40472 9.39997 3.36945C9.39771 3.35581 9.3931 3.34202 9.38463 3.32861C9.10908 2.89425 8.76815 2.61162 8.30145 2.42454C8.25112 2.4044 8.17471 2.42642 8.14017 2.46874C7.96838 2.67918 7.9535 2.8611 7.88978 3.09145C7.69925 3.07891 7.44758 3.05375 7.30549 3.15948C7.17361 3.2576 7.22296 3.47267 7.1523 3.61077C7.14323 3.62856 7.03681 3.63107 6.91612 3.64588C6.91332 3.61696 6.8973 3.58984 6.86465 3.58146C6.39025 3.45935 5.75381 3.36655 5.45815 3.88838C5.3042 4.16011 5.32778 4.27517 5.01602 4.33842C4.86449 4.36922 4.77516 4.4882 4.70887 4.62199C4.4962 5.0511 3.7959 5.43993 3.8918 5.99789C3.9005 6.04844 3.91743 6.09155 3.93602 6.13309C3.8717 6.1566 3.81358 6.18733 3.77096 6.23106C3.6229 6.38296 3.64633 6.5923 3.71004 6.78103C3.49888 6.9062 3.29542 7.09524 3.23012 7.3415C3.15734 7.61582 3.56168 7.66316 3.70399 7.75557C3.81895 7.83026 3.94017 7.66112 3.84669 7.56378C3.80232 7.51762 3.76778 7.4894 3.71639 7.45162C3.67739 7.42756 3.63696 7.40656 3.59494 7.38876C3.58368 7.37983 3.57521 7.37395 3.56735 7.36878C3.67006 7.19807 3.79522 7.08364 3.96474 6.98073C4.02014 6.94711 4.04916 6.87587 4.03117 6.81136C3.98983 6.663 3.87865 6.47638 4.0679 6.4216C4.10856 6.40984 4.14937 6.40028 4.19019 6.39087C4.41397 6.50209 4.71719 6.50279 4.95851 6.456C4.98088 6.52576 5.00725 6.59551 5.04172 6.66621C5.08782 6.76065 5.21713 6.76755 5.28546 6.69874C5.35589 6.6278 5.43555 6.57905 5.5236 6.53501C5.52458 6.53454 5.52572 6.5343 5.52677 6.53383C5.41401 6.73526 5.2974 6.92869 5.21955 7.13984C4.7608 6.91607 4.25752 7.02196 4.05218 7.64615C3.99724 7.81333 3.77383 7.9508 3.67452 8.10372C3.56969 8.26525 3.52382 8.46135 3.52382 8.65345C3.52382 8.95747 3.72304 9.17403 3.96776 9.29285C3.9299 9.34826 3.89732 9.4083 3.87646 9.47766C3.80361 9.72 3.9178 9.95991 4.11189 10.0959C4.23689 10.1834 4.38381 10.2104 4.52907 10.1979C4.47866 10.4379 4.38374 10.6959 4.44964 10.9265C4.516 11.1583 4.77818 11.1769 4.99554 11.1612C4.95601 11.6727 5.08714 12.247 5.59366 12.4535C5.99672 12.6179 6.39977 12.438 6.67654 12.1271C6.6943 12.14 6.70956 12.1542 6.73035 12.1655C6.96282 12.2924 7.2278 12.2004 7.45937 12.0646C7.51084 12.2197 7.66471 12.3415 7.97382 12.3879C8.62833 12.4863 8.77056 12.0163 8.65871 11.5465C8.80858 11.7662 9.04461 11.9045 9.37722 11.8663C9.84535 11.8123 9.90604 11.3952 10.1538 11.0903C10.2186 11.0103 10.3148 10.9939 10.3736 10.9005C10.4281 10.8142 10.4015 10.692 10.3641 10.5822C10.7283 10.5673 10.9611 10.3219 11.1624 9.96258C11.1946 9.90505 11.1546 9.80857 11.082 9.81735C10.969 9.83098 10.917 9.86672 10.8431 9.96226C10.6434 10.2205 10.5369 10.3561 10.1833 10.3197C10.1081 10.3119 10.0386 10.4074 10.0653 10.4803C10.1501 10.7117 10.1543 10.7392 9.98767 10.8667C9.83379 10.9845 9.76766 11.2255 9.64054 11.3644C9.40617 11.6208 9.12782 11.5893 8.89988 11.3636C8.68252 11.1484 8.65863 10.7906 8.7002 10.4895C9.41796 10.4361 10.0844 9.83835 10.364 9.11807C10.4296 9.13343 10.5081 9.12865 10.5685 9.13171C10.7055 9.13884 10.7408 8.9686 10.676 8.88184C10.7053 8.78387 10.5813 8.68347 10.4892 8.76671C10.4812 8.77407 10.4714 8.77917 10.4624 8.78536C10.537 8.42545 10.5113 8.05214 10.3453 7.71199C10.351 7.69318 10.3567 7.67437 10.356 7.65046C10.344 7.24212 10.5406 7.03011 10.3195 6.6358C10.3106 6.62005 10.2959 6.60986 10.2828 6.59818C10.3847 6.46133 10.4969 6.36046 10.5902 6.25489C10.5583 6.29925 10.5528 6.35991 10.6069 6.41219C10.6176 6.42246 10.6294 6.42896 10.6406 6.43743C10.6609 6.51298 10.6354 6.62365 10.6242 6.68612C10.6064 6.7855 10.5792 6.88347 10.5723 6.98465C10.5676 7.0566 10.6327 7.11147 10.6967 7.11366C10.9106 7.12103 11.1247 7.1193 11.3387 7.11977C11.407 7.11993 11.4725 7.05809 11.4691 6.98457C11.4639 6.8761 11.3579 6.63948 11.4318 6.54849C11.461 6.51267 11.4748 6.46133 11.4647 6.41572C11.4698 6.42308 11.4743 6.43077 11.4813 6.43735C11.958 6.87563 11.9252 7.36313 11.3799 7.76184C11.2883 7.82885 11.2632 7.95457 11.3449 8.04345C11.5697 8.28767 11.4217 8.52193 11.2891 8.72438C11.2018 8.68049 11.1125 8.63958 11.0219 8.59436C10.9607 8.56387 10.8691 8.57123 10.8366 8.64483C10.7517 8.83724 10.7337 9.12175 10.6014 9.28258C10.4893 9.41903 10.679 9.6178 10.792 9.48025C10.9265 9.31675 10.9594 9.10443 11.0252 8.90606C11.0743 8.93012 11.1219 8.95504 11.1689 8.98083C11.1731 9.10937 11.3176 9.1984 11.4181 9.14911C11.427 9.15663 11.4362 9.1629 11.445 9.17074C11.414 9.32867 11.3623 9.49122 11.185 9.48793C11.0385 9.48519 10.9004 9.46661 10.7656 9.54217C10.6493 9.60737 10.7292 9.811 10.8564 9.76538C10.9676 9.72549 11.0948 9.77777 11.2098 9.7791C11.3562 9.78082 11.4919 9.71357 11.5773 9.58943C11.6931 9.42099 11.8069 9.12763 11.6461 8.96711C11.6213 8.9425 11.5943 8.92354 11.5683 8.90222C11.7556 8.52813 11.9309 8.35484 11.6975 7.95308C12.0947 7.61002 12.3498 7.22786 12.1165 6.66887ZM9.76675 5.51971C9.78459 5.11263 9.87596 4.71439 9.91798 4.31036C10.0671 4.41821 10.204 4.54502 10.2754 4.72129C10.3738 4.96481 10.338 5.2635 10.3018 5.52434C10.1319 5.55773 9.97587 5.50905 9.79842 5.51697C9.7864 5.51752 9.77635 5.52065 9.76592 5.52348C9.766 5.52207 9.7666 5.52112 9.76675 5.51971ZM7.23029 3.9568C7.28758 3.96276 7.34094 3.91997 7.37026 3.87357C7.46005 3.73139 7.51885 3.59933 7.53124 3.42917C7.53147 3.4258 7.53155 3.42439 7.53177 3.42133C7.67582 3.39124 7.86454 3.41663 8.00081 3.41569C8.07563 3.41514 8.12249 3.36576 8.14924 3.29852C8.19262 3.18895 8.22928 2.7516 8.46236 2.86094C8.72854 2.98579 8.94893 3.17688 9.13946 3.40103C9.10424 3.42133 9.06887 3.44673 9.03335 3.48223C8.88658 3.62848 8.80087 3.81149 8.75749 4.01026C8.73829 3.96276 8.69317 3.92537 8.64291 3.92569C8.42306 3.9271 8.18355 3.88462 7.96755 3.92961C7.89069 3.9456 7.86363 4.03322 7.88517 4.1011C7.91903 4.31044 7.83801 4.52323 7.88396 4.72717C7.94586 5.00196 8.30508 5.00008 8.51451 5.00062C8.5594 5.0007 8.6179 4.97366 8.63672 4.92797C8.7259 4.71094 8.69514 4.48404 8.72469 4.26318C8.70844 4.57136 8.76958 4.89599 8.85257 5.17243C8.63551 5.27126 8.30251 5.44565 8.3208 5.6959C8.33811 5.9315 8.51254 6.06451 8.69567 6.17581C8.60293 6.20089 8.5099 6.22158 8.41731 6.20089C8.38527 6.19375 8.35829 6.20034 8.33562 6.21303C8.13027 6.00001 7.66774 5.58798 7.37185 5.84647C7.32801 5.88471 7.29733 5.93096 7.27209 5.98026C7.22727 5.95956 7.18102 5.93346 7.13575 5.92312C7.13922 5.89216 7.10242 5.86943 7.07657 5.89271C7.05737 5.90995 7.04724 5.93425 7.02827 5.94961C7.02344 5.95353 7.0214 5.9598 7.01762 5.96474C7.11776 5.54746 7.2145 5.11788 7.19318 4.72074C7.18827 4.62873 7.07135 4.5893 7.02329 4.67301C6.97522 4.75672 6.93584 4.84787 6.89987 4.94176C6.88876 4.92397 6.87251 4.91018 6.84523 4.91214C6.53687 4.93432 6.16095 5.17164 6.1193 5.51532C6.0797 5.84184 6.34611 6.10574 6.61902 6.23169C6.61071 6.28279 6.60239 6.33413 6.59355 6.38366C6.14644 6.24423 5.82886 5.92132 6.00125 5.38616C6.16979 4.86292 6.73254 4.57324 7.23044 4.56062C7.34162 4.5578 7.37586 4.36969 7.25773 4.35174C7.09901 4.3276 6.94363 4.32996 6.79398 4.35151C6.85785 4.12155 6.80366 3.91268 7.23029 3.9568ZM8.46546 4.18997C8.45427 4.23857 8.44467 4.28747 8.44112 4.34038C8.43273 4.465 8.44331 4.58711 8.41376 4.70663C8.33675 4.70593 8.25641 4.70115 8.19028 4.67105C8.15468 4.65483 8.15808 4.64762 8.15597 4.59871C8.14992 4.46171 8.15748 4.33168 8.14644 4.19969C8.2515 4.20314 8.35927 4.19585 8.46546 4.18997ZM6.8521 5.07085C6.7565 5.36672 6.70367 5.69449 6.65424 6.01043C6.52561 5.88511 6.40136 5.75085 6.38639 5.55733C6.36674 5.30371 6.67933 5.18457 6.8521 5.07085ZM5.09341 5.74638C4.98715 5.72193 4.87114 5.79779 4.87462 5.9192C4.87741 6.01686 4.88671 6.10832 4.90001 6.19791C4.7815 6.19571 4.64297 6.19438 4.52348 6.16475C4.51494 6.10542 4.47337 6.05205 4.40543 6.05746C4.38193 6.05934 4.35646 6.06114 4.32978 6.06326C4.30302 6.03661 4.27952 6.00643 4.26463 5.96756C4.17076 5.72232 4.65264 5.37464 4.79579 5.25872C4.91656 5.16091 4.98904 4.90524 5.06205 4.76267C5.1117 4.66564 5.38696 4.65052 5.47856 4.62732C5.53191 4.61376 5.58996 4.56062 5.59925 4.50215C5.69773 3.88368 6.12285 3.73335 6.63021 3.72747C6.60421 3.74409 6.58184 3.76313 6.56725 3.78688C6.44625 3.98251 6.45857 4.22352 6.4461 4.4483C6.09398 4.59495 5.80581 4.87914 5.65624 5.28788C5.59026 5.46806 5.57507 5.63618 5.59646 5.79058C5.42875 5.78322 5.25364 5.78322 5.09341 5.74638ZM5.25281 6.32935C5.23255 6.24446 5.22227 6.15989 5.21985 6.07117C5.36799 6.05283 5.52292 6.05362 5.66947 6.04429C5.69176 6.09327 5.71851 6.13999 5.74859 6.18474C5.58822 6.16131 5.40449 6.23333 5.25281 6.32935ZM5.54597 7.15371C5.61754 6.92062 5.7334 6.71935 5.78842 6.48006C5.79054 6.47089 5.78971 6.46243 5.78963 6.45381C5.81805 6.44362 5.84564 6.43108 5.87163 6.41384C5.88758 6.40325 5.89998 6.38876 5.90867 6.37237C6.11144 6.56377 6.3876 6.6938 6.67465 6.74317C6.75378 6.75673 6.85248 6.72295 6.86933 6.62851C6.90274 6.44158 6.94982 6.24572 6.99782 6.04672C7.00129 6.07313 7.01059 6.09868 7.02812 6.11506C7.07921 6.16264 7.14073 6.20065 7.20732 6.23098C7.19288 6.4636 7.26393 6.72907 7.3191 6.93151C7.08942 7.13592 6.81635 7.44433 6.87916 7.77406C6.93652 8.07566 7.16968 8.19644 7.42695 8.24981C7.30134 8.35343 7.21389 8.46801 7.15358 8.58808C6.85082 8.58699 6.58622 8.5797 6.27726 8.43392C6.1617 8.37929 6.06526 8.33101 6.03322 8.24041C6.037 8.23037 6.04168 8.22144 6.04516 8.21094C6.05869 8.17042 6.04894 8.1382 6.02808 8.11602C6.02967 8.10771 6.02974 8.10035 6.03209 8.09149C6.07267 7.93489 6.10819 7.81231 6.11885 7.65015C6.12497 7.5568 6.03571 7.46581 5.94631 7.47114C5.83014 7.47811 5.70892 7.47835 5.62631 7.44002C5.60054 7.4133 5.57393 7.38829 5.54695 7.36392C5.52201 7.31587 5.51642 7.24996 5.54597 7.15371ZM6.53604 9.85301C6.49016 9.8697 6.44345 9.89086 6.39682 9.91453C6.28572 9.87574 6.17319 9.83866 6.06731 9.7885C5.82039 9.67157 5.98304 9.37342 6.06413 9.18626C6.09534 9.11431 6.08333 9.03671 6.01523 8.99259C5.81956 8.86601 5.66984 8.7562 5.84541 8.54192C5.84843 8.53824 5.85108 8.53463 5.8541 8.53095C6.22375 8.74884 6.64011 8.95575 7.05994 8.91954C7.0415 9.14048 7.09811 9.36754 7.20762 9.57814C7.13847 9.5859 7.06138 9.57234 6.99933 9.56732C6.89881 9.55925 6.81401 9.57916 6.71682 9.58935C6.61759 9.59977 6.53173 9.66835 6.53264 9.78043C6.53271 9.80575 6.53513 9.82855 6.53604 9.85301ZM6.90176 9.87448C6.91037 9.87268 6.91891 9.86986 6.9276 9.86853C7.06637 9.8407 7.21608 9.85653 7.34222 9.79595C7.37812 9.84509 7.41682 9.89243 7.45755 9.93812C7.25281 9.93499 7.13053 10.1846 6.94786 10.2598C6.92897 10.1984 6.91385 10.1359 6.90863 10.0707C6.9038 10.0096 6.90123 9.94878 6.90055 9.88749C6.90146 9.88169 6.90123 9.87934 6.90176 9.87448ZM4.48441 9.8806C4.42206 9.87926 4.35751 9.85842 4.30083 9.82346C4.25624 9.79595 4.23372 9.77236 4.20303 9.70793C4.21271 9.72815 4.19275 9.65142 4.19396 9.66694C4.1923 9.64625 4.19374 9.62564 4.19548 9.60518C4.192 9.64484 4.20409 9.57994 4.20643 9.57195C4.20863 9.5645 4.2084 9.56419 4.20908 9.56145C4.21044 9.55925 4.2115 9.55776 4.21573 9.54883C4.22661 9.52563 4.23931 9.50298 4.25163 9.48056C4.27778 9.43299 4.31277 9.39403 4.34996 9.35539C4.42712 9.27537 4.51441 9.20687 4.60458 9.14307C4.61145 9.16086 4.62287 9.1763 4.64463 9.18124C4.74364 9.20366 4.83063 9.19511 4.93054 9.1897C5.02222 9.18485 5.08918 9.22247 5.15025 9.27913C5.05978 9.50329 4.93236 9.71389 4.71855 9.82871C4.63987 9.87096 4.56641 9.88224 4.48441 9.8806ZM6.48729 11.7662C6.30764 12.0165 6.09323 12.2266 5.75366 12.1323C5.32717 12.0138 5.27646 11.3821 5.32778 11.0224C5.34093 10.9303 5.28818 10.8009 5.17594 10.8156C4.99448 10.8395 4.72784 10.9202 4.73805 10.661C4.74492 10.4857 4.76775 10.3152 4.77017 10.1406C4.78483 10.1349 4.79987 10.1299 4.81415 10.1236C5.13763 9.98037 5.33201 9.61521 5.43011 9.28383C5.44266 9.24128 5.43064 9.18155 5.39655 9.15216C5.28092 9.05255 5.16325 8.97691 5.00967 8.9715C4.92351 8.96845 4.83607 8.99204 4.7512 9.01712C4.7744 8.94909 4.71983 8.86178 4.63662 8.88474C4.46627 8.93161 4.28798 9.00199 4.14302 9.11141C3.92181 8.95457 3.7674 8.76044 3.83376 8.46025C3.89997 8.16078 4.18671 8.01648 4.30136 7.75471C4.40316 7.52248 4.54162 7.30318 4.8072 7.28648C4.92941 7.2788 5.04346 7.31995 5.15206 7.3781C5.14345 7.42325 5.13687 7.46934 5.13286 7.51683C5.12825 7.57209 5.16763 7.64819 5.21789 7.67045C5.39996 7.75141 5.56456 7.78786 5.74587 7.80973C5.70914 7.97792 5.65737 8.13546 5.65616 8.31565C5.65616 8.31674 5.65699 8.31769 5.65699 8.31886C5.56902 8.42216 5.49481 8.53918 5.46495 8.6609C5.41122 8.8798 5.60454 9.04612 5.77225 9.16431C5.66803 9.39497 5.5688 9.68849 5.73567 9.89682C5.83407 10.0197 5.97268 10.0735 6.11938 10.1037C5.95915 10.2461 5.84035 10.4276 5.8414 10.6293C5.84352 11.0559 6.20274 11.232 6.54669 11.3389C6.50558 11.4778 6.47731 11.6277 6.48729 11.7662ZM8.16035 12.0621C8.14153 12.0302 8.12649 11.9955 8.13088 11.9667C8.13775 11.9225 8.14032 11.8747 8.13994 11.8282C8.19466 11.8147 8.1927 11.7227 8.12891 11.7227C8.12732 11.7227 8.12679 11.7243 8.12513 11.7243C8.07079 11.596 7.87542 11.6129 7.86189 11.7778C7.85403 11.8723 7.8789 11.9664 7.9216 12.0516C7.80922 12.0161 7.78133 11.9305 7.80068 11.8229C7.81141 11.8064 7.81504 11.7871 7.81352 11.7688C7.87709 11.5575 8.08606 11.285 8.21938 11.123C8.38572 11.4441 8.66649 11.9966 8.16035 12.0621ZM8.48957 11.1256C8.4415 11.0446 8.38701 10.97 8.32738 10.9067C8.26676 10.8424 8.18159 10.8873 8.16398 10.9566C7.87142 11.1179 7.55452 11.4615 7.46496 11.7742C7.32348 11.8093 7.18018 11.8372 7.03576 11.8415C6.97333 11.8434 6.93017 11.8268 6.89647 11.8015C6.93615 11.7211 6.96887 11.6381 6.99169 11.5538C7.0257 11.4279 6.92783 11.3552 6.83162 11.3651C6.83616 11.3363 6.84092 11.3082 6.84507 11.2822C6.85724 11.2075 6.82716 11.1349 6.75211 11.1126C6.53014 11.0464 6.03791 10.8643 6.175 10.535C6.24733 10.3611 6.40914 10.2508 6.56831 10.1468C6.59506 10.276 6.63837 10.4003 6.7082 10.5298C6.73284 10.5756 6.7924 10.6179 6.84523 10.6113C6.99986 10.592 7.11647 10.5307 7.23868 10.4325C7.34593 10.3464 7.52096 10.2298 7.57901 10.103C7.58422 10.0915 7.58422 10.0809 7.58634 10.0699C7.63063 10.1108 7.67605 10.1503 7.72351 10.1863C7.97398 10.3766 8.23782 10.4707 8.49894 10.4894C8.45276 10.6941 8.44838 10.9178 8.48957 11.1256ZM9.93212 7.5916C10.5525 8.91727 9.06343 10.9294 7.8071 9.66341C7.4314 9.28485 7.46489 8.95183 7.69646 8.6674C7.91903 9.25256 8.44702 9.67439 9.08421 9.44921C9.79713 9.19731 9.97943 8.2839 9.80915 7.61041C9.79986 7.5735 9.78134 7.54975 9.76003 7.53211C9.76804 7.47129 9.72261 7.4046 9.64477 7.42207C9.42189 7.472 9.19418 7.5202 8.96759 7.57483C8.85211 7.42795 8.86889 7.19063 8.78968 7.02259C8.68199 6.79443 8.43432 6.86309 8.2388 6.9363C8.13269 6.97603 8.02091 7.0356 7.93694 7.11515C7.85131 7.19635 7.85517 7.26916 7.88396 7.38108C7.90732 7.472 7.96581 7.54983 8.02272 7.6206C8.06913 7.67844 8.15151 7.73252 8.16609 7.80941C8.16693 7.8138 8.16934 7.8167 8.1707 7.82054C7.98758 7.89461 7.81118 7.98372 7.64468 8.09212C7.6431 8.09149 7.64212 8.09031 7.64053 8.08977C7.43677 8.02448 7.13265 7.91828 7.17807 7.63941C7.21495 7.41275 7.43609 7.23389 7.59208 7.09305C7.63108 7.05786 7.64348 6.99367 7.63017 6.94366C7.5781 6.74874 7.52187 6.52145 7.52724 6.30834C7.61249 6.31351 7.69646 6.30834 7.77196 6.29C7.82426 6.27738 7.84769 6.22981 7.8458 6.1827C7.99846 6.27534 8.15778 6.40749 8.19368 6.43265C8.24356 6.46768 8.29412 6.45592 8.3307 6.42387C8.33864 6.42818 8.34514 6.43359 8.35496 6.43641C8.46115 6.4669 8.56401 6.47458 8.67352 6.45577C8.93547 6.41094 9.0926 6.34737 9.13651 6.71809C9.14694 6.80564 9.19644 6.86646 9.2851 6.87218C9.54992 6.88919 9.81716 6.88292 10.083 6.88214C10.1429 7.04712 10.1102 7.20121 10.0696 7.364C9.97376 7.35828 9.88163 7.48368 9.93212 7.5916ZM9.53133 7.67116C9.53155 7.67766 9.52974 7.68315 9.53072 7.68989C9.61031 8.23163 9.56761 8.90183 9.00364 9.1466C8.49123 9.36919 8.09823 8.91194 7.88313 8.48024C8.32828 8.10599 9.08089 7.83293 9.53133 7.67116ZM8.34793 7.75478C8.32526 7.5887 8.17849 7.47882 8.1472 7.31509C8.27863 7.20528 8.43303 7.14094 8.59795 7.10504C8.69196 7.25537 8.69189 7.45891 8.76958 7.62397C8.62689 7.66183 8.48647 7.70596 8.34793 7.75478ZM9.88941 6.48453C9.87377 6.50804 9.86583 6.5314 9.86107 6.55429C9.70553 6.55405 9.55 6.55484 9.39483 6.56126C9.33959 6.37527 9.26635 6.20567 9.06879 6.14014C9.03629 6.12933 9.00349 6.1258 8.97062 6.12502C8.96858 6.12251 8.96775 6.11969 8.96533 6.11726C8.85438 6.00549 8.73882 5.89412 8.65349 5.75908C8.58835 5.65601 9.04612 5.41477 9.09978 5.38091C9.17044 5.33631 9.18435 5.25276 9.15087 5.17893C8.97228 4.78548 8.94704 4.31875 9.07824 3.90727C9.23499 3.41553 9.50775 3.67183 9.69352 3.96448C9.67288 3.98949 9.65716 4.01888 9.65716 4.05501C9.65671 4.54612 9.57395 5.03009 9.5732 5.51971C9.57305 5.58837 9.62527 5.61941 9.67561 5.61549C9.66351 5.66824 9.6815 5.73031 9.73236 5.77028C9.89916 5.90149 10.1632 5.90117 10.3718 5.84506C10.3246 6.11146 10.0293 6.27566 9.88941 6.48453ZM10.5466 4.60271C10.4253 4.31514 10.1861 4.13072 9.93567 3.97052C9.9043 3.90797 9.86735 3.8412 9.82608 3.77536C10.2223 3.82066 10.7548 3.66164 10.6641 4.27517C10.6523 4.35527 10.6715 4.42612 10.7411 4.47119C10.948 4.60506 11.124 4.7441 11.2527 4.96136C11.3387 5.10659 11.3154 5.20707 11.2394 5.27761C11.1801 5.26436 11.1118 5.30081 11.0987 5.35983C10.9458 5.41861 10.7445 5.43569 10.6206 5.44181C10.6493 5.1591 10.6568 4.86323 10.5466 4.60271ZM10.8318 6.85306C10.8455 6.74247 10.8675 6.62679 10.8648 6.51698C10.884 6.51886 10.9031 6.52098 10.9229 6.52184C10.9821 6.52443 11.0875 6.50695 11.1677 6.51886C11.1457 6.62608 11.1717 6.73447 11.1916 6.84961C11.0717 6.84953 10.9517 6.85079 10.8318 6.85306ZM11.4445 6.37316C11.4401 6.36728 11.438 6.36046 11.4322 6.35529C11.3395 6.27323 11.2322 6.25497 11.1134 6.24917C11.0318 6.24517 10.8564 6.28099 10.7871 6.22534C10.7286 6.17831 10.6598 6.19085 10.6144 6.22847C10.7016 6.12408 10.766 6.00816 10.777 5.83785C10.9433 5.80806 11.1116 5.75006 11.2559 5.66832C11.3745 5.81849 11.4867 5.9384 11.4401 6.27409C11.4354 6.30748 11.4357 6.34173 11.4445 6.37316Z" fill="white"/>
</svg>
