<svg width="17" height="16" viewBox="0 0 17 16" fill="none" xmlns="http://www.w3.org/2000/svg">
<path d="M5.19907 5.07229C5.25432 5.12754 5.32685 5.15531 5.39938 5.15531C5.47192 5.15531 5.54445 5.12754 5.5997 5.07229C5.71048 4.96151 5.71048 4.78244 5.5997 4.67166C5.31212 4.38379 5.31212 3.91573 5.5997 3.62786C5.8462 3.38136 5.9822 3.05383 5.9822 2.70533C5.9822 2.35683 5.84648 2.02929 5.5997 1.78279C5.48892 1.67201 5.30985 1.67201 5.19907 1.78279C5.08828 1.89358 5.08828 2.07264 5.19907 2.18343C5.33847 2.32283 5.41553 2.50813 5.41553 2.70533C5.41553 2.90253 5.33875 3.08783 5.19907 3.22723C4.69048 3.73581 4.69048 4.56371 5.19907 5.07229Z" fill="white"/>
<path d="M11.4326 5.07229C11.4878 5.12754 11.5604 5.15531 11.6329 5.15531C11.7054 5.15531 11.778 5.12754 11.8332 5.07229C11.944 4.96151 11.944 4.78244 11.8332 4.67166C11.5456 4.38379 11.5456 3.91573 11.8332 3.62786C12.0797 3.38136 12.2157 3.05383 12.2157 2.70533C12.2157 2.35683 12.08 2.02929 11.8332 1.78279C11.7224 1.67201 11.5434 1.67201 11.4326 1.78279C11.3218 1.89358 11.3218 2.07264 11.4326 2.18343C11.572 2.32283 11.6491 2.50813 11.6491 2.70533C11.6491 2.90253 11.5723 3.08783 11.4326 3.22723C10.924 3.73581 10.924 4.56371 11.4326 5.07229Z" fill="white"/>
<path d="M8.31589 3.37259C8.37114 3.42784 8.44367 3.4556 8.5162 3.4556C8.58874 3.4556 8.66127 3.42784 8.71652 3.37259C8.8273 3.2618 8.8273 3.08274 8.71652 2.97195C8.42894 2.68409 8.42894 2.21602 8.71652 1.92815C8.96302 1.68165 9.09902 1.35412 9.09902 1.00562C9.09902 0.657121 8.9633 0.329587 8.71652 0.0830875C8.60574 -0.0276958 8.42667 -0.0276958 8.31589 0.0830875C8.2051 0.193871 8.2051 0.372938 8.31589 0.483721C8.45529 0.623121 8.53235 0.808421 8.53235 1.00562C8.53235 1.20282 8.45557 1.38812 8.31589 1.52752C7.8073 2.0361 7.8073 2.864 8.31589 3.37259Z" fill="white"/>
<path d="M7.18116 7.284C7.20184 7.284 7.22281 7.28173 7.24377 7.2772C7.65121 7.1854 8.07252 7.13893 8.49639 7.13893C8.49752 7.13893 8.49866 7.13893 8.50007 7.13893C8.65647 7.13893 8.78341 7.01228 8.78341 6.85588C8.78341 6.6992 8.65676 6.57227 8.50007 6.57227C8.49894 6.57227 8.49752 6.57227 8.49611 6.57227C8.03059 6.57227 7.56734 6.62355 7.1191 6.72442C6.96639 6.7587 6.87062 6.91028 6.9049 7.063C6.93494 7.19475 7.05167 7.284 7.18116 7.284Z" fill="white"/>
<path d="M2.7827 11.9511C2.79998 11.9545 2.81698 11.956 2.8337 11.956C2.968 11.956 3.08728 11.8602 3.11221 11.7236C3.4066 10.1092 4.37956 8.67269 5.71491 7.88162C5.8495 7.802 5.89398 7.62804 5.81436 7.49345C5.73446 7.35887 5.56078 7.31439 5.4262 7.394C3.95173 8.26752 2.87846 9.84795 2.5549 11.6216C2.52656 11.7758 2.62856 11.9231 2.7827 11.9511Z" fill="white"/>
<path d="M15.7601 11.5654C15.2467 8.55049 12.8965 6.15491 9.90448 5.57464C9.9093 5.52931 9.91667 5.48369 9.91667 5.43864C9.91667 4.65749 9.28115 4.02197 8.5 4.02197C7.71885 4.02197 7.08333 4.65749 7.08333 5.43864C7.08333 5.48369 7.09042 5.52931 7.09552 5.57464C4.10352 6.15491 1.75327 8.55049 1.23987 11.5654C0.6477 11.9006 0 12.3939 0 12.9473C0 14.388 4.39507 15.3556 8.5 15.3556C12.6049 15.3556 17 14.388 17 12.9473C17 12.3939 16.3523 11.9006 15.7601 11.5654ZM7.6517 5.48766C7.65057 5.47122 7.65 5.45479 7.65 5.43892C7.65 4.97029 8.03137 4.58892 8.5 4.58892C8.96863 4.58892 9.35 4.97029 9.35 5.43892C9.35 5.45507 9.34943 5.47122 9.3483 5.48766C9.33498 5.48624 9.32167 5.48567 9.30863 5.48426C9.21117 5.47349 9.11313 5.46584 9.01453 5.45904C8.97827 5.45649 8.94228 5.45281 8.90602 5.45082C8.77172 5.44346 8.63657 5.43921 8.50028 5.43921C8.364 5.43921 8.22885 5.44346 8.09455 5.45082C8.05828 5.45281 8.0223 5.45649 7.98603 5.45904C7.88743 5.46584 7.7894 5.47377 7.69193 5.48426C7.67833 5.48567 7.66502 5.48596 7.6517 5.48766ZM7.47972 6.08209C7.63187 6.05942 7.78487 6.04299 7.93843 6.03052C7.96988 6.02797 8.00133 6.02571 8.03278 6.02344C8.34388 6.00247 8.6564 6.00247 8.9675 6.02344C8.99895 6.02571 9.0304 6.02797 9.06185 6.03052C9.21542 6.04299 9.36842 6.05942 9.52057 6.08209C12.4723 6.52834 14.8067 8.87916 15.2303 11.8383C15.2433 11.9292 15.2538 12.0205 15.2632 12.1117C15.2663 12.1432 15.2705 12.1743 15.2734 12.2058C15.2844 12.3313 15.2926 12.4568 15.2966 12.5823C10.8454 13.6139 6.15513 13.6139 1.70397 12.5823C1.70822 12.4568 1.71615 12.3313 1.7272 12.2058C1.73003 12.1743 1.734 12.1432 1.7374 12.1117C1.74675 12.0202 1.75723 11.929 1.77027 11.8383C2.19357 8.87916 4.52795 6.52806 7.47972 6.08209ZM8.5 14.7889C3.65613 14.7889 0.566667 13.5794 0.566667 12.9473C0.566667 12.8387 0.700967 12.5996 1.15147 12.2877C1.15033 12.3038 1.1509 12.3197 1.14977 12.3358C1.14013 12.4911 1.13333 12.6475 1.13333 12.8056V13.0289L1.35065 13.0813C3.68928 13.6423 6.09478 13.9233 8.5 13.9233C10.9052 13.9233 13.3107 13.6426 15.6494 13.0813L15.8667 13.0289V12.8056C15.8667 12.6475 15.8599 12.4914 15.8502 12.3358C15.8491 12.3197 15.8497 12.3038 15.8485 12.2877C16.299 12.5996 16.4333 12.8387 16.4333 12.9473C16.4333 13.5794 13.3439 14.7889 8.5 14.7889Z" fill="white"/>
</svg>
