<svg width="15" height="18" viewBox="0 0 15 18" fill="none" xmlns="http://www.w3.org/2000/svg">
<path d="M7.13145 3.94102L6.84408 3.71007C6.78334 3.66125 6.73777 3.59905 6.7087 3.52969C6.6848 3.47249 6.67185 3.41049 6.67273 3.3463C6.67327 3.30658 6.67929 3.26794 6.6895 3.23072C6.71576 3.13472 6.77232 3.04929 6.85389 2.9873C7.25068 2.68576 7.48521 2.22707 7.49735 1.72887C7.50949 1.23063 7.29764 0.761052 6.91599 0.44052C6.66817 0.232354 6.29858 0.264535 6.09049 0.512354C5.88235 0.760173 5.9145 1.12972 6.16229 1.33789C6.30923 1.46131 6.32783 1.61792 6.32583 1.70027C6.32384 1.78258 6.29764 1.93808 6.14478 2.0542C5.74247 2.35999 5.5078 2.8251 5.50101 3.33041C5.49418 3.83568 5.71617 4.30701 6.11006 4.62352L6.39743 4.85447C6.50567 4.94145 6.63527 4.98374 6.7641 4.98374C6.93556 4.98374 7.10546 4.90883 7.2212 4.76479C7.42386 4.51251 7.3837 4.14371 7.13145 3.94102Z" fill="white"/>
<path d="M9.56489 4.24419L9.22782 3.97328C9.19764 3.94901 9.17086 3.92186 9.14598 3.89333C9.04366 3.77586 8.9869 3.62567 8.98903 3.46635C8.99076 3.3406 9.02868 3.22141 9.09633 3.12027C9.13523 3.06209 9.18381 3.00983 9.24145 2.96605C9.68215 2.63108 9.94265 2.12162 9.95614 1.56824C9.96966 1.0149 9.73431 0.493304 9.31047 0.137311C9.06266 -0.0708551 8.69307 -0.0387073 8.48494 0.209112C8.27681 0.456897 8.30896 0.826478 8.55674 1.03461C8.70636 1.16026 8.78938 1.34436 8.78462 1.53968C8.77985 1.735 8.6879 1.91484 8.53237 2.03302C8.08555 2.37258 7.82488 2.88921 7.81731 3.45043C7.80974 4.01165 8.0563 4.53514 8.49373 4.88671L8.83079 5.15761C8.93903 5.24459 9.06867 5.28688 9.19747 5.28688C9.36892 5.28688 9.53879 5.21197 9.65457 5.06796C9.85726 4.81572 9.81717 4.44691 9.56489 4.24419Z" fill="white"/>
<path d="M11.9064 3.94102L11.619 3.71007C11.5582 3.66125 11.5127 3.59909 11.4836 3.52969C11.4597 3.47249 11.4468 3.41049 11.4476 3.3463C11.4482 3.30658 11.4542 3.26791 11.4644 3.23069C11.4907 3.13472 11.5472 3.04926 11.6288 2.9873C12.0256 2.68576 12.2601 2.22707 12.2723 1.72887C12.2844 1.23063 12.0725 0.761052 11.6909 0.44052C11.4431 0.232354 11.0735 0.264535 10.8654 0.512354C10.6573 0.760173 10.6894 1.12972 10.9372 1.33789C11.0841 1.46131 11.1027 1.61792 11.1007 1.70027C11.0987 1.78258 11.0725 1.93808 10.9197 2.0542C10.5174 2.35999 10.2827 2.8251 10.2759 3.33041C10.2691 3.83568 10.4911 4.30701 10.885 4.62352L11.1723 4.85447C11.2806 4.94145 11.4102 4.98374 11.539 4.98374C11.7105 4.98374 11.8804 4.90883 11.9961 4.76479C12.1988 4.51251 12.1586 4.14371 11.9064 3.94102Z" fill="white"/>
<path d="M15 8.18243V6.07565C15 5.75204 14.7376 5.48499 14.4141 5.48499C14.2016 5.48499 14.016 5.60689 13.9133 5.76316H3.7894L1.10585 0.611059C0.956435 0.324027 0.602572 0.214772 0.315574 0.364187C0.0285087 0.513568 -0.0830791 0.868512 0.0662681 1.15561L2.69539 6.20894V8.18243C2.69539 10.5595 4.04215 12.6269 6.01051 13.6584L4.18089 16.3961C4.00108 16.6651 4.07342 17.029 4.34244 17.2088C4.44246 17.2757 4.55561 17.3077 4.66746 17.3077C4.85656 17.3077 5.04218 17.2163 5.15516 17.0473L5.96927 15.8292L8.28127 16.5425V16.7006C8.28127 17.0242 8.54363 17.2865 8.8672 17.2865C9.19081 17.2865 9.45313 17.0241 9.45313 16.7006V16.5425L11.7651 15.8292L12.5792 17.0473C12.6922 17.2163 12.8778 17.3077 13.0669 17.3077C13.1788 17.3077 13.292 17.2757 13.392 17.2088C13.661 17.029 13.7333 16.6651 13.5535 16.3961L11.7157 13.6462C13.6669 12.6107 15 10.5502 15 8.18243ZM3.86732 6.93505H13.8282V7.44286H3.86732V6.93505ZM8.28134 15.3161L6.6488 14.8124L7.11989 14.1075C7.49363 14.2176 7.88201 14.293 8.28134 14.33V15.3161ZM9.4532 15.3161V14.3277C9.85101 14.289 10.2377 14.212 10.6099 14.1004L11.0857 14.8124L9.4532 15.3161ZM8.8575 13.185H8.85263C6.25207 13.185 4.11061 11.1928 3.88699 8.61472H13.8086C13.5856 11.1928 11.4504 13.185 8.8575 13.185Z" fill="white"/>
</svg>
