<svg width="16" height="9" viewBox="0 0 16 9" fill="none" xmlns="http://www.w3.org/2000/svg">
<path d="M15.0012 5.68428C14.5641 4.85022 14.0028 4.08623 13.342 3.4019C13.2808 2.88706 13.0737 2.38624 12.7042 1.97717C12.0976 1.3075 11.2584 0.873577 10.3619 0.755061C10.3555 0.746131 10.3523 0.735318 10.346 0.726388C10.0082 0.264421 9.49022 0 8.9244 0H6.37057C5.80476 0 5.28673 0.264421 4.94901 0.726388C4.94265 0.735318 4.93945 0.746131 4.93309 0.755061C4.03657 0.873577 3.19803 1.3075 2.59082 1.97782C2.22126 2.38627 2.01481 2.88709 1.95299 3.4013C1.29222 4.08626 0.732135 4.84834 0.309056 5.65564C-0.113396 6.37056 -0.101927 7.25241 0.338357 7.95777C0.739781 8.60005 1.49738 8.97982 2.26266 8.97982C2.52582 8.97982 2.78962 8.93523 3.04066 8.8409L5.46513 7.87112C5.77351 7.96861 6.0934 8.0285 6.4209 8.0285C6.47953 8.0285 6.53813 8.01449 6.59676 8.01129C6.85673 8.31586 7.2314 8.49874 7.65256 8.49874C8.07182 8.49874 8.44523 8.31586 8.70329 8.01192C8.7581 8.01446 8.81353 8.02784 8.86831 8.02784C9.1939 8.02784 9.51313 7.96667 9.8228 7.86855L12.2721 8.84727C12.5225 8.93902 12.785 8.98299 13.0444 8.98299C13.8065 8.98299 14.552 8.60578 14.9572 7.95777C15.3969 7.25241 15.4084 6.37053 15.0012 5.68428ZM5.67605 6.59929C5.60787 6.57061 5.54416 6.53621 5.48045 6.50051C5.40972 6.461 5.34091 6.41769 5.27654 6.36862C5.24022 6.34186 5.20071 6.31829 5.1663 6.28896L4.91842 6.0309L3.56123 4.61573C3.52237 4.57496 3.49113 4.52971 3.458 4.48512C3.44143 4.46218 3.4204 4.44178 3.40511 4.41821C3.38217 4.38189 3.36625 4.34238 3.34647 4.30415C3.32864 4.26845 3.30696 4.2347 3.29232 4.19773C3.27894 4.16332 3.2713 4.127 3.26111 4.09197C3.24773 4.04737 3.23181 4.00403 3.22351 3.95878C3.21777 3.93011 3.21777 3.90081 3.21395 3.87148C3.20759 3.81733 3.20057 3.76252 3.20057 3.70709C3.20185 3.39359 3.31144 3.0801 3.53572 2.83288C3.8301 2.50729 4.2073 2.26515 4.6221 2.12689C4.63295 2.19126 4.65078 2.25434 4.66861 2.31677C4.67497 2.34099 4.67497 2.36584 4.68262 2.3894L6.06213 6.7216C5.92709 6.6974 5.8003 6.65027 5.67605 6.59929ZM12.081 3.87151C12.0772 3.90081 12.0772 3.93014 12.0715 3.95881C12.0632 4.00469 12.0472 4.04803 12.0339 4.09262C12.023 4.12766 12.016 4.16335 12.0026 4.19776C11.9867 4.2379 11.9638 4.27485 11.944 4.31308C11.9255 4.34811 11.9115 4.38443 11.8899 4.41758C11.8446 4.48768 11.793 4.55459 11.7337 4.61576L10.1395 6.27818C10.0267 6.37567 9.90249 6.45276 9.77441 6.52094C9.73746 6.54006 9.70115 6.5598 9.66354 6.57701C9.52591 6.6388 9.38383 6.69041 9.23598 6.71846L10.6123 2.38881C10.6199 2.36587 10.6193 2.3423 10.6257 2.31936C10.6442 2.25566 10.662 2.19192 10.6728 2.12692C11.087 2.26518 11.4648 2.50732 11.7592 2.83229C11.9835 3.08016 12.0931 3.39365 12.0944 3.70715C12.0944 3.76255 12.0874 3.81736 12.081 3.87151Z" fill="white"/>
</svg>
