<svg width="17" height="15" viewBox="0 0 17 15" fill="none" xmlns="http://www.w3.org/2000/svg">
<path d="M12.5968 3.8795C12.2419 3.5474 11.9313 3.06747 11.6023 2.55928C11.2198 1.96821 10.8242 1.35707 10.2952 0.872905C9.65347 0.285494 8.93544 0 8.10009 0C7.26473 0 6.54671 0.285494 5.90499 0.872841C5.37599 1.35704 4.98041 1.96818 4.59784 2.55922C4.26894 3.0674 3.95825 3.5474 3.6034 3.87943C2.25565 5.14069 0 7.25161 0 10.1911C0 11.7336 0.721635 12.8631 2.14494 13.5483C3.4432 14.1734 5.33549 14.4645 8.10009 14.4645C10.8647 14.4645 12.757 14.1734 14.0552 13.5483C15.4785 12.8631 16.2002 11.7336 16.2002 10.1911C16.2002 7.25161 13.9445 5.14069 12.5968 3.8795ZM13.6019 12.5809C12.4663 13.1277 10.6665 13.3935 8.10009 13.3935C5.53363 13.3935 3.73392 13.1277 2.59823 12.5809C1.53202 12.0675 1.05652 11.3305 1.05652 10.1911C1.05652 7.7205 3.02048 5.88257 4.32004 4.66641C4.77032 4.24505 5.13172 3.68673 5.4812 3.14679C5.82713 2.61233 6.1848 2.05969 6.61303 1.66777C7.05787 1.26065 7.53036 1.07103 8.10009 1.07103C8.66981 1.07103 9.14231 1.26065 9.58712 1.66781C10.0153 2.05972 10.373 2.61236 10.7189 3.14682C11.0684 3.68676 11.4298 4.24511 11.8801 4.66644C13.1797 5.88261 15.1436 7.72053 15.1436 10.1912C15.1437 11.3305 14.6682 12.0675 13.6019 12.5809Z" fill="white"/>
<path d="M7.23779 4.20376L6.60814 3.34375C6.16668 3.67591 6.08594 4.37151 5.97415 5.33435C5.83714 6.51453 5.66666 7.98328 4.82153 8.82491L5.56196 9.58889C6.67243 8.48293 6.87532 6.73546 7.02343 5.45947C7.07908 4.98019 7.15524 4.32385 7.26162 4.1816C7.26152 4.18173 7.25422 4.19141 7.23779 4.20376Z" fill="white"/>
<path d="M10.2259 5.33438C10.1142 4.37151 10.0334 3.67588 9.59193 3.34375L8.96227 4.20376C8.94585 4.19141 8.93854 4.18173 8.93848 4.18166C9.04482 4.32388 9.12101 4.98028 9.17667 5.45951C9.32478 6.73546 9.52766 8.48297 10.6382 9.58893L11.3786 8.82495C10.5334 7.98331 10.363 6.51453 10.2259 5.33438Z" fill="white"/>
</svg>
