<svg width="18" height="18" viewBox="0 0 18 18" fill="none" xmlns="http://www.w3.org/2000/svg">
<path fill-rule="evenodd" clip-rule="evenodd" d="M4.95013 3.00001C3.87463 3.00001 3.00013 3.87451 3.00013 4.95001C3.00013 10.491 7.50838 15 13.0501 15C14.1249 15 15.0001 14.1255 15.0001 13.05C15.0001 12.9668 14.9949 12.885 14.9844 12.804L11.5194 12.009C11.4504 12.141 11.3746 12.2843 11.3056 12.4178C10.9636 13.0703 10.7161 13.5443 10.0846 13.29C7.60513 12.42 5.58088 10.395 4.69963 7.8855C4.43188 7.29675 4.94188 7.02976 5.58838 6.69226C5.71963 6.62326 5.86138 6.54901 5.99113 6.48151L5.19613 3.01576C5.11288 3.00526 5.03188 3.00001 4.95013 3.00001ZM13.0501 16.5C6.68112 16.5 1.50012 11.319 1.50012 4.95C1.50012 3.04725 3.04737 1.5 4.95012 1.5C5.14512 1.5 5.33787 1.5165 5.52462 1.54875C5.70687 1.578 5.88987 1.6245 6.06837 1.686C6.31212 1.77075 6.49587 1.9755 6.55362 2.2275L7.58037 6.7005C7.63737 6.9465 7.56612 7.2045 7.39062 7.3875C7.28862 7.494 7.28637 7.49625 6.35637 7.983C7.10937 9.6135 8.41812 10.9178 10.0156 11.6453C10.5031 10.7145 10.5061 10.7115 10.6126 10.6095C10.7956 10.434 11.0551 10.3658 11.2996 10.4198L15.7734 11.4465C16.0246 11.5043 16.2294 11.6873 16.3134 11.931C16.3749 12.108 16.4214 12.291 16.4521 12.4793C16.4836 12.6645 16.5001 12.8565 16.5001 13.05C16.5001 14.9528 14.9521 16.5 13.0501 16.5Z" fill="black"/>
<mask id="mask0" mask-type="alpha" maskUnits="userSpaceOnUse" x="1" y="1" width="16" height="16">
<path fill-rule="evenodd" clip-rule="evenodd" d="M4.95013 3.00001C3.87463 3.00001 3.00013 3.87451 3.00013 4.95001C3.00013 10.491 7.50838 15 13.0501 15C14.1249 15 15.0001 14.1255 15.0001 13.05C15.0001 12.9668 14.9949 12.885 14.9844 12.804L11.5194 12.009C11.4504 12.141 11.3746 12.2843 11.3056 12.4178C10.9636 13.0703 10.7161 13.5443 10.0846 13.29C7.60513 12.42 5.58088 10.395 4.69963 7.8855C4.43188 7.29675 4.94188 7.02976 5.58838 6.69226C5.71963 6.62326 5.86138 6.54901 5.99113 6.48151L5.19613 3.01576C5.11288 3.00526 5.03188 3.00001 4.95013 3.00001ZM13.0501 16.5C6.68112 16.5 1.50012 11.319 1.50012 4.95C1.50012 3.04725 3.04737 1.5 4.95012 1.5C5.14512 1.5 5.33787 1.5165 5.52462 1.54875C5.70687 1.578 5.88987 1.6245 6.06837 1.686C6.31212 1.77075 6.49587 1.9755 6.55362 2.2275L7.58037 6.7005C7.63737 6.9465 7.56612 7.2045 7.39062 7.3875C7.28862 7.494 7.28637 7.49625 6.35637 7.983C7.10937 9.6135 8.41812 10.9178 10.0156 11.6453C10.5031 10.7145 10.5061 10.7115 10.6126 10.6095C10.7956 10.434 11.0551 10.3658 11.2996 10.4198L15.7734 11.4465C16.0246 11.5043 16.2294 11.6873 16.3134 11.931C16.3749 12.108 16.4214 12.291 16.4521 12.4793C16.4836 12.6645 16.5001 12.8565 16.5001 13.05C16.5001 14.9528 14.9521 16.5 13.0501 16.5Z" fill="white"/>
</mask>
</svg>
