<svg width="15" height="14" viewBox="0 0 15 14" fill="none" xmlns="http://www.w3.org/2000/svg">
<path d="M15 6.66671C15 6.29853 14.6947 6.00004 14.3182 6.00004H14.256C13.972 4.49449 12.7444 3.30813 11.1972 3.0516C10.8971 1.32156 9.35345 0 7.5 0C5.64655 0 4.10282 1.32156 3.80277 3.0516C2.25564 3.30813 1.028 4.49449 0.744 6.00004H0.681818C0.305273 6.00004 0 6.29853 0 6.66671C0 9.30071 1.42786 11.6144 3.56623 12.9077C3.46814 13.0232 3.40909 13.1715 3.40909 13.3333C3.40909 13.7015 3.71436 14 4.09091 14H10.9091C11.2856 14 11.5909 13.7015 11.5909 13.3333C11.5909 13.1715 11.5319 13.0232 11.4338 12.9077C13.5721 11.6144 15 9.30071 15 6.66671ZM4.43182 4.33333C4.80836 4.33333 5.11364 4.03484 5.11364 3.66667C5.11364 2.38004 6.18414 1.33333 7.5 1.33333C8.81582 1.33333 9.88636 2.38004 9.88636 3.66667C9.88636 4.03484 10.1916 4.33333 10.5682 4.33333C11.6471 4.33333 12.5606 5.03733 12.8548 6.00004H9.54545C9.84668 5.77911 9.90777 5.36124 9.68182 5.06671C9.45586 4.77213 9.0285 4.71249 8.72727 4.93338L8.18182 5.33338V3.86667C8.18182 3.49849 7.87655 3.2 7.5 3.2C7.12345 3.2 6.81818 3.49849 6.81818 3.86667V5.33338L6.27273 4.93338C5.9715 4.71244 5.54414 4.77218 5.31818 5.06671C5.09223 5.36124 5.15332 5.77911 5.45455 6.00004L5.45459 6.00009H2.14523C2.43932 5.03733 3.35286 4.33333 4.43182 4.33333ZM7.5 12.6667C4.34686 12.6667 1.74155 10.3292 1.40127 7.33338H7.49836C7.49873 7.33338 7.49914 7.33342 7.4995 7.33342C7.49968 7.33342 7.49986 7.33338 7.50005 7.33338C7.50023 7.33338 7.50041 7.33342 7.50059 7.33342C7.50095 7.33342 7.50136 7.33338 7.50173 7.33338H13.5988C13.2584 10.3292 10.6531 12.6667 7.5 12.6667Z" fill="white"/>
</svg>
