<svg width="15" height="9" viewBox="0 0 15 9" fill="none" xmlns="http://www.w3.org/2000/svg">
<path d="M12.0572 2.05932C12.0572 1.55245 12.4881 1.10551 13.0178 1.10551C13.5475 1.10551 13.9785 1.5179 13.9785 2.02477C13.9785 2.53163 13.5475 2.94402 13.0178 2.94402C12.7358 2.94402 12.5071 3.1628 12.5071 3.43276C12.5071 3.70263 12.7358 3.92151 13.0178 3.92151C14.1108 3.92151 15 3.07069 15 2.02472C15 0.978843 14.1108 0.128022 13.0178 0.128022C12.023 0.128022 11.1972 0.833036 11.0569 1.74833C10.404 1.97025 9.8053 2.0788 9.23495 2.0788C9.23485 2.0788 9.2347 2.0788 9.23455 2.0788C8.02515 2.0786 7.12369 1.58643 6.1694 1.0655C5.5993 0.754213 5.00985 0.432394 4.35086 0.222214C3.88864 0.0747642 3.42041 0 2.9592 0C1.26051 0 0.194196 1.0017 0.1496 1.04423C0.0281863 1.16041 -0.0240359 1.32719 0.0104085 1.48818C0.0449035 1.64911 0.161671 1.78269 0.321065 1.84363C1.85622 2.43121 2.70218 3.41865 3.52021 4.37353C4.33293 5.32207 5.16818 6.29559 6.60743 6.65825C6.12672 7.07784 5.66127 7.69465 5.66127 8.51135C5.66127 8.78122 5.88995 9 6.17202 9H9.54303C9.54344 9 9.54379 9 9.54404 9C9.82616 9 10.0548 8.78122 10.0548 8.51135C10.0548 8.49946 10.0544 8.48767 10.0535 8.47598C10.0396 7.6354 9.53253 7.00969 9.03379 6.59562C10.8036 5.944 12.0572 3.86313 12.0572 2.05932ZM6.79111 8.0227C7.02031 7.51318 7.55803 7.15526 7.85687 6.9877C8.15485 7.15584 8.69278 7.51506 8.92293 8.0227H6.79111ZM10.067 4.63358C9.43566 5.40456 8.6547 5.82922 7.86788 5.82922C6.08823 5.82922 5.30364 4.91335 4.31026 3.75386C3.5948 2.91879 2.79975 1.99084 1.52389 1.31062C1.87935 1.1376 2.36798 0.977586 2.95925 0.977586C3.31041 0.977586 3.6699 1.03544 4.02783 1.14968C4.59122 1.32932 5.11192 1.61364 5.66318 1.91453C6.69116 2.47577 7.75419 3.05619 9.2345 3.05629C9.2347 3.05629 9.23485 3.05629 9.23505 3.05629C9.78919 3.05629 10.3577 2.97427 10.9569 2.80672C10.8193 3.44688 10.5077 4.09525 10.067 4.63358Z" fill="white"/>
</svg>
