<svg width="14" height="14" viewBox="0 0 14 14" fill="none" xmlns="http://www.w3.org/2000/svg">
<path d="M13.5453 11.4508L11.2717 9.17997C10.9934 8.90162 10.6241 8.75004 10.23 8.75004C9.97091 8.75004 9.72012 8.81894 9.49965 8.94571L8.76658 8.21264C9.51343 7.34177 9.9654 6.21184 9.9654 4.97995C9.9654 2.23505 7.73035 2.54903e-06 4.9827 2.54903e-06C2.23505 -0.00275337 0 2.22954 0 4.97719C0 7.72209 2.23505 9.95714 4.9827 9.95714C6.21735 9.95714 7.34728 9.50517 8.21815 8.76107L8.95122 9.49414C8.82721 9.71462 8.75831 9.96265 8.75831 10.2217C8.75831 10.6158 8.91264 10.9851 9.19099 11.2634L11.4949 13.5674C12.1701 14.2426 13.2008 14.0166 13.6749 13.4627C14.1572 12.8894 14.0938 11.9993 13.5453 11.4508ZM4.9827 9.17997C3.94648 9.17997 2.99568 8.80241 2.26261 8.17681C2.51615 7.38311 3.10868 6.73271 3.87482 6.41027L4.6575 7.61185C4.72916 7.72209 4.85317 7.78823 4.9827 7.78823C5.11498 7.78823 5.23625 7.72209 5.3079 7.61185L6.09058 6.41027C6.85672 6.73271 7.44925 7.38035 7.70279 8.17681C6.96972 8.79965 6.01893 9.17997 4.9827 9.17997ZM6.04648 5.56696C5.88113 5.51735 5.70199 5.58074 5.60829 5.7268L4.9827 6.68586L4.35986 5.7268C4.26616 5.58074 4.08703 5.51735 3.92167 5.56696C2.91301 5.87286 2.0945 6.6087 1.66733 7.55122C1.30906 7.09098 1.04174 6.55358 0.901185 5.96932H1.46064C1.6756 5.96932 1.84922 5.7957 1.84922 5.58074C1.84922 5.36578 1.6756 5.19215 1.46064 5.19215H0.782681C0.779925 5.1205 0.777169 5.04885 0.777169 4.97444C0.777169 4.78428 0.790949 4.59688 0.815752 4.41498H2.43072C2.64568 4.41498 2.8193 4.24136 2.8193 4.0264C2.8193 3.81144 2.64568 3.63781 2.43072 3.63781H0.997642C1.55709 1.976 3.13348 0.774416 4.9827 0.774416C7.30043 0.774416 9.18823 2.65946 9.18823 4.97719C9.18823 5.94727 8.85477 6.84295 8.30083 7.55398C7.87366 6.6087 7.05515 5.87562 6.04648 5.56696ZM13.0741 12.9638C12.8068 13.2642 12.3052 13.2725 12.0461 13.0162L9.74217 10.7123C9.48587 10.456 9.41973 10.0508 9.74217 9.73115C10.0839 9.38942 10.5166 9.52446 10.7233 9.73115L12.9969 12.002C13.2642 12.2694 13.3083 12.6993 13.0741 12.9638Z" fill="white"/>
<path d="M4.98266 1.46582C4.00982 1.46582 3.21887 2.25677 3.21887 3.22961C3.21887 4.20245 4.00982 4.9934 4.98266 4.9934C5.9555 4.9934 6.74645 4.20245 6.74645 3.22961C6.74645 2.25677 5.9555 1.46582 4.98266 1.46582ZM4.98266 4.21347C4.43974 4.21347 3.99604 3.77252 3.99604 3.22961C3.99604 2.68669 4.43699 2.24575 4.98266 2.24575C5.52833 2.24575 5.96928 2.68669 5.96928 3.22961C5.96928 3.77252 5.52558 4.21347 4.98266 4.21347Z" fill="white"/>
</svg>
