<svg width="20" height="20" viewBox="0 0 20 20" fill="none" xmlns="http://www.w3.org/2000/svg">
<path fill-rule="evenodd" clip-rule="evenodd" d="M13.6523 11.6235H7.30397L5.9398 6.64198H16.1523L13.6523 11.6235ZM17.569 5.76857C17.2632 5.2754 16.7332 4.98149 16.1515 4.98149H5.48484L4.97067 3.10262C4.8715 2.74146 4.54234 2.49072 4.1665 2.49072H2.49984C2.039 2.49072 1.6665 2.86268 1.6665 3.32098C1.6665 3.77928 2.039 4.15123 2.49984 4.15123H3.52984L5.86234 12.6721C5.9615 13.0333 6.29067 13.284 6.6665 13.284H14.1665C14.4823 13.284 14.7707 13.1064 14.9123 12.8249L17.6423 7.38424C17.9032 6.86533 17.8748 6.26174 17.569 5.76857ZM6.25002 14.9445C5.56002 14.9445 5.00002 15.5016 5.00002 16.1899C5.00002 16.8782 5.56002 17.4353 6.25002 17.4353C6.94002 17.4353 7.50002 16.8782 7.50002 16.1899C7.50002 15.5016 6.94002 14.9445 6.25002 14.9445ZM13.3333 16.1899C13.3333 15.5016 13.8933 14.9445 14.5833 14.9445C15.2733 14.9445 15.8333 15.5016 15.8333 16.1899C15.8333 16.8782 15.2733 17.4353 14.5833 17.4353C13.8933 17.4353 13.3333 16.8782 13.3333 16.1899Z" fill="black"/>
<mask id="mask0" mask-type="alpha" maskUnits="userSpaceOnUse" x="1" y="2" width="17" height="16">
<path fill-rule="evenodd" clip-rule="evenodd" d="M13.6523 11.6235H7.30397L5.9398 6.64198H16.1523L13.6523 11.6235ZM17.569 5.76857C17.2632 5.2754 16.7332 4.98149 16.1515 4.98149H5.48484L4.97067 3.10262C4.8715 2.74146 4.54234 2.49072 4.1665 2.49072H2.49984C2.039 2.49072 1.6665 2.86268 1.6665 3.32098C1.6665 3.77928 2.039 4.15123 2.49984 4.15123H3.52984L5.86234 12.6721C5.9615 13.0333 6.29067 13.284 6.6665 13.284H14.1665C14.4823 13.284 14.7707 13.1064 14.9123 12.8249L17.6423 7.38424C17.9032 6.86533 17.8748 6.26174 17.569 5.76857ZM6.25002 14.9445C5.56002 14.9445 5.00002 15.5016 5.00002 16.1899C5.00002 16.8782 5.56002 17.4353 6.25002 17.4353C6.94002 17.4353 7.50002 16.8782 7.50002 16.1899C7.50002 15.5016 6.94002 14.9445 6.25002 14.9445ZM13.3333 16.1899C13.3333 15.5016 13.8933 14.9445 14.5833 14.9445C15.2733 14.9445 15.8333 15.5016 15.8333 16.1899C15.8333 16.8782 15.2733 17.4353 14.5833 17.4353C13.8933 17.4353 13.3333 16.8782 13.3333 16.1899Z" fill="white"/>
</mask>
</svg>
