<svg width="15" height="15" viewBox="0 0 15 15" fill="none" xmlns="http://www.w3.org/2000/svg">
<path d="M14.3182 6.81787H0.681821C0.305274 6.81787 0 7.12315 0 7.49969C0 10.1936 1.42787 12.5599 3.56624 13.8826C3.46815 14.0007 3.40911 14.1524 3.40911 14.3179C3.40911 14.6945 3.71438 14.9997 4.09093 14.9997H10.9091C11.2857 14.9997 11.591 14.6945 11.591 14.3179C11.591 14.1524 11.5319 14.0007 11.4338 13.8826C13.5722 12.5599 15.0001 10.1936 15.0001 7.49969C15.0001 7.12315 14.6948 6.81787 14.3182 6.81787Z" fill="white"/>
<path d="M12.657 7.89551H2.60792C2.33043 7.89551 2.10547 8.11155 2.10547 8.37802C2.10547 10.2844 3.15771 11.9591 4.73353 12.8951C4.66125 12.9787 4.61773 13.086 4.61773 13.2032C4.61773 13.4696 4.8427 13.6857 5.12019 13.6857H10.1447C10.4222 13.6857 10.6472 13.4696 10.6472 13.2032C10.6472 13.086 10.6037 12.9787 10.5314 12.8951C12.1072 11.9591 13.1594 10.2844 13.1594 8.37802C13.1594 8.11155 12.9345 7.89551 12.657 7.89551Z" fill="#343E48"/>
<path d="M4.80042 0.199711C4.53419 -0.0666083 4.10241 -0.0665173 3.83614 0.199666C3.46409 0.571758 2.95445 1.08131 2.95459 2.0454C2.95445 3.00963 3.464 3.51914 3.83609 3.89114C4.17041 4.2255 4.31823 4.38946 4.31823 4.77273C4.31823 5.14928 4.62351 5.45455 5.00005 5.45455C5.3766 5.45455 5.68187 5.14928 5.68187 4.77273C5.68187 3.80841 5.17233 3.29891 4.80023 2.92691C4.46596 2.59263 4.31819 2.42872 4.31823 2.0454C4.31819 1.66222 4.46601 1.49826 4.80037 1.1639C5.06669 0.897669 5.06669 0.465985 4.80042 0.199711Z" fill="white"/>
<path d="M7.9821 0.199711C7.71587 -0.0666083 7.2841 -0.0665173 7.01783 0.199666C6.64573 0.571713 6.13614 1.08126 6.13623 2.0454C6.13609 3.00963 6.64564 3.51914 7.01773 3.89114C7.3521 4.2255 7.49992 4.38946 7.49992 4.77273C7.49992 5.14928 7.80519 5.45455 8.18174 5.45455C8.55829 5.45455 8.86356 5.14928 8.86356 4.77273C8.86356 3.80841 8.35401 3.29891 7.98197 2.92691C7.64765 2.59263 7.49987 2.42872 7.49992 2.0454C7.49987 1.66222 7.64769 1.49826 7.98206 1.1639C8.24838 0.897669 8.24838 0.465985 7.9821 0.199711Z" fill="white"/>
<path d="M11.1641 0.199711C10.8979 -0.0666083 10.4661 -0.0665173 10.1998 0.199666C9.82774 0.571713 9.31815 1.08126 9.31824 2.0454C9.3181 3.00963 9.82765 3.51914 10.1997 3.89114C10.5341 4.2255 10.6819 4.38946 10.6819 4.77273C10.6819 5.14928 10.9872 5.45455 11.3637 5.45455C11.7403 5.45455 12.0456 5.14928 12.0456 4.77273C12.0456 3.80841 11.536 3.29891 11.164 2.92691C10.8297 2.59263 10.6819 2.42872 10.6819 2.0454C10.6819 1.66222 10.8297 1.49826 11.1641 1.1639C11.4304 0.897669 11.4304 0.465985 11.1641 0.199711Z" fill="white"/>
</svg>
