<svg width="17" height="16" viewBox="0 0 17 16" fill="none" xmlns="http://www.w3.org/2000/svg">
<path d="M15.3298 7.26831H0.792887C0.391474 7.26831 0.06604 7.59374 0.06604 7.99516C0.06604 10.8669 1.5882 13.3895 3.86779 14.7996C3.76322 14.9255 3.70028 15.0872 3.70028 15.2636C3.70028 15.665 4.02571 15.9905 4.42712 15.9905H11.6956C12.097 15.9905 12.4224 15.665 12.4224 15.2636C12.4224 15.0872 12.3595 14.9255 12.2549 14.7996C14.5345 13.3895 16.0567 10.8669 16.0567 7.99516C16.0567 7.59374 15.7312 7.26831 15.3298 7.26831Z" fill="#333333"/>
<path d="M13.5589 8.41699H2.84618C2.55037 8.41699 2.31055 8.6473 2.31055 8.93137C2.31055 10.9637 3.43227 12.7489 5.11216 13.7467C5.0351 13.8358 4.98872 13.9503 4.98872 14.0752C4.98872 14.3592 5.22854 14.5895 5.52435 14.5895H10.8807C11.1765 14.5895 11.4163 14.3592 11.4163 14.0752C11.4163 13.9503 11.3699 13.8358 11.2929 13.7467C12.9728 12.7489 14.0945 10.9637 14.0945 8.93137C14.0945 8.6473 13.8547 8.41699 13.5589 8.41699Z" fill="white"/>
<path d="M5.18342 0.2129C4.89961 -0.0710069 4.43932 -0.07091 4.15546 0.212851C3.75885 0.609516 3.21555 1.15271 3.2157 2.18047C3.21555 3.20838 3.75875 3.75153 4.15541 4.1481C4.51181 4.50454 4.66939 4.67933 4.66939 5.08791C4.66939 5.48933 4.99483 5.81476 5.39624 5.81476C5.79765 5.81476 6.12309 5.48933 6.12309 5.08791C6.12309 4.05991 5.57989 3.51676 5.18322 3.12019C4.82688 2.76384 4.66934 2.58911 4.66939 2.18047C4.66934 1.77199 4.82692 1.5972 5.18337 1.24076C5.46728 0.956949 5.46728 0.496758 5.18342 0.2129Z" fill="#333333"/>
<path d="M8.57531 0.2129C8.2915 -0.0710069 7.83122 -0.07091 7.54736 0.212851C7.15069 0.609467 6.60745 1.15266 6.60754 2.18047C6.6074 3.20838 7.1506 3.75153 7.54726 4.1481C7.90371 4.50454 8.06129 4.67933 8.06129 5.08791C8.06129 5.48933 8.38672 5.81476 8.78813 5.81476C9.18955 5.81476 9.51498 5.48933 9.51498 5.08791C9.51498 4.05991 8.97178 3.51676 8.57517 3.12019C8.21877 2.76384 8.06124 2.58911 8.06129 2.18047C8.06124 1.77199 8.21882 1.5972 8.57526 1.24076C8.85917 0.956949 8.85917 0.496758 8.57531 0.2129Z" fill="#333333"/>
<path d="M11.9674 0.2129C11.6836 -0.0710069 11.2233 -0.07091 10.9394 0.212851C10.5428 0.609467 9.99954 1.15266 9.99963 2.18047C9.99949 3.20838 10.5427 3.75153 10.9394 4.1481C11.2958 4.50454 11.4534 4.67933 11.4534 5.08791C11.4534 5.48933 11.7788 5.81476 12.1802 5.81476C12.5816 5.81476 12.9071 5.48933 12.9071 5.08791C12.9071 4.05991 12.3639 3.51676 11.9673 3.12019C11.6109 2.76384 11.4533 2.58911 11.4534 2.18047C11.4533 1.77199 11.6109 1.5972 11.9674 1.24076C12.2513 0.956949 12.2513 0.496758 11.9674 0.2129Z" fill="#333333"/>
</svg>
