<svg width="9" height="9" viewBox="0 0 9 9" fill="none" xmlns="http://www.w3.org/2000/svg">
<path fill-rule="evenodd" clip-rule="evenodd" d="M6.60234 7.62074C6.55174 7.62074 6.50081 7.60889 6.45404 7.58455L4.82079 6.73125L3.18787 7.58455C3.0796 7.6406 2.94892 7.63099 2.8509 7.55924C2.75225 7.48749 2.70324 7.3661 2.72406 7.24598L3.03508 5.44329L1.71541 4.16687C1.62765 4.08199 1.59594 3.9545 1.63342 3.83791C1.67089 3.72196 1.77115 3.63708 1.89222 3.61978L3.71798 3.35457L4.53412 1.71267C4.64238 1.49486 4.99953 1.49486 5.10779 1.71267L5.92393 3.35457L7.74969 3.61978C7.87076 3.63708 7.97102 3.72196 8.00849 3.83791C8.04597 3.9545 8.01426 4.08199 7.9265 4.16687L6.60683 5.44329L6.91785 7.24598C6.93867 7.3661 6.88934 7.48749 6.79101 7.55924C6.73527 7.60024 6.66897 7.62074 6.60234 7.62074Z" fill="black"/>
<mask id="mask0" mask-type="alpha" maskUnits="userSpaceOnUse" x="1" y="1" width="8" height="7">
<path fill-rule="evenodd" clip-rule="evenodd" d="M6.60234 7.62074C6.55174 7.62074 6.50081 7.60889 6.45404 7.58455L4.82079 6.73125L3.18787 7.58455C3.0796 7.6406 2.94892 7.63099 2.8509 7.55924C2.75225 7.48749 2.70324 7.3661 2.72406 7.24598L3.03508 5.44329L1.71541 4.16687C1.62765 4.08199 1.59594 3.9545 1.63342 3.83791C1.67089 3.72196 1.77115 3.63708 1.89222 3.61978L3.71798 3.35457L4.53412 1.71267C4.64238 1.49486 4.99953 1.49486 5.10779 1.71267L5.92393 3.35457L7.74969 3.61978C7.87076 3.63708 7.97102 3.72196 8.00849 3.83791C8.04597 3.9545 8.01426 4.08199 7.9265 4.16687L6.60683 5.44329L6.91785 7.24598C6.93867 7.3661 6.88934 7.48749 6.79101 7.55924C6.73527 7.60024 6.66897 7.62074 6.60234 7.62074Z" fill="white"/>
</mask>

</svg>
