<svg width="8" height="9" viewBox="0 0 8 9" fill="none" xmlns="http://www.w3.org/2000/svg">
<path fill-rule="evenodd" clip-rule="evenodd" d="M5.62444 7.62074C5.57383 7.62074 5.5229 7.60889 5.47614 7.58455L3.84289 6.73125L2.20996 7.58455C2.1017 7.6406 1.97101 7.63099 1.873 7.55924C1.77434 7.48749 1.72534 7.3661 1.74616 7.24598L2.05718 5.44329L0.737509 4.16687C0.649745 4.08199 0.618035 3.9545 0.655511 3.83791C0.692987 3.72196 0.793243 3.63708 0.914319 3.61978L2.74007 3.35457L3.55621 1.71267C3.66448 1.49486 4.02162 1.49486 4.12988 1.71267L4.94603 3.35457L6.77178 3.61978C6.89286 3.63708 6.99311 3.72196 7.03059 3.83791C7.06806 3.9545 7.03635 4.08199 6.94859 4.16687L5.62892 5.44329L5.93994 7.24598C5.96076 7.3661 5.91143 7.48749 5.8131 7.55924C5.75737 7.60024 5.69106 7.62074 5.62444 7.62074Z" fill="black"/>
<mask id="mask0" mask-type="alpha" maskUnits="userSpaceOnUse" x="0" y="1" width="8" height="7">
<path fill-rule="evenodd" clip-rule="evenodd" d="M5.62444 7.62074C5.57383 7.62074 5.5229 7.60889 5.47614 7.58455L3.84289 6.73125L2.20996 7.58455C2.1017 7.6406 1.97101 7.63099 1.873 7.55924C1.77434 7.48749 1.72534 7.3661 1.74616 7.24598L2.05718 5.44329L0.737509 4.16687C0.649745 4.08199 0.618035 3.9545 0.655511 3.83791C0.692987 3.72196 0.793243 3.63708 0.914319 3.61978L2.74007 3.35457L3.55621 1.71267C3.66448 1.49486 4.02162 1.49486 4.12988 1.71267L4.94603 3.35457L6.77178 3.61978C6.89286 3.63708 6.99311 3.72196 7.03059 3.83791C7.06806 3.9545 7.03635 4.08199 6.94859 4.16687L5.62892 5.44329L5.93994 7.24598C5.96076 7.3661 5.91143 7.48749 5.8131 7.55924C5.75737 7.60024 5.69106 7.62074 5.62444 7.62074Z" fill="white"/>
</mask>
</svg>
