<svg width="15" height="14" viewBox="0 0 15 14" fill="none" xmlns="http://www.w3.org/2000/svg">
<path d="M5.85394 12.0956C5.85349 11.6834 5.99905 11.2825 6.26808 10.9552C6.53711 10.6279 6.91457 10.3923 7.34197 10.285C7.76937 10.1777 8.22283 10.2047 8.63208 10.3618C9.04133 10.5189 9.38351 10.7973 9.60559 11.1539C11.1349 10.5256 11.7079 9.53963 11.7079 7.66578V5.62157C11.7079 2.90141 10.0607 1.0221 7.50037 1.0221C4.94 1.0221 3.29284 2.90209 3.29284 5.62157V8.00648C3.29265 8.14196 3.23477 8.27185 3.13189 8.36765C3.02901 8.46345 2.88953 8.51735 2.74404 8.51753H2.01229C1.4789 8.51699 0.967518 8.31949 0.590287 7.96833C0.213056 7.61718 0.000774677 7.14105 0 6.64436L0 5.96295C0.000580683 5.46608 0.212753 4.9897 0.589984 4.63829C0.967216 4.28688 1.47871 4.08914 2.01229 4.08841H2.36207C2.916 1.65513 4.81194 0 7.50037 0C10.1888 0 12.084 1.65513 12.6379 4.08841H12.9877C13.5212 4.08914 14.0325 4.28679 14.4098 4.63805C14.787 4.98931 14.9992 5.46552 15 5.96227V6.64367C14.9994 7.14049 14.7872 7.61679 14.41 7.96809C14.0327 8.31939 13.5212 8.51699 12.9877 8.51753H12.7616C12.7334 9.32459 12.4426 10.1046 11.9277 10.7544C11.4129 11.4042 10.6983 11.893 9.87853 12.1562C9.86989 12.6532 9.6496 13.1266 9.26612 13.4724C8.88263 13.8181 8.36737 14.0078 7.83367 13.9998C7.29998 13.9917 6.79158 13.7866 6.42031 13.4295C6.04903 13.0724 5.84531 12.5926 5.85394 12.0956ZM6.95156 12.0956C6.95156 12.264 7.0052 12.4287 7.10571 12.5688C7.20622 12.7089 7.34907 12.818 7.5162 12.8825C7.68334 12.947 7.86725 12.9638 8.04468 12.931C8.22211 12.8981 8.38509 12.817 8.51301 12.6979C8.64093 12.5787 8.72805 12.427 8.76334 12.2617C8.79863 12.0965 8.78052 11.9253 8.71129 11.7696C8.64206 11.614 8.52482 11.481 8.3744 11.3874C8.22399 11.2938 8.04714 11.2438 7.86624 11.2438C7.62371 11.244 7.39117 11.3338 7.21968 11.4935C7.04818 11.6532 6.95175 11.8697 6.95156 12.0956ZM12.8055 7.49611H12.9877C13.2304 7.49611 13.4631 7.40639 13.6347 7.24668C13.8064 7.08696 13.9029 6.87032 13.9031 6.64436V5.96295C13.9031 5.73699 13.8068 5.52027 13.6353 5.36043C13.4637 5.20059 13.2311 5.1107 12.9884 5.11052H12.8055V7.49611ZM1.09761 5.96295V6.64436C1.098 6.87008 1.19452 7.08645 1.36599 7.246C1.53746 7.40554 1.76989 7.49525 2.01229 7.49543H2.19523V5.11052H2.01229C1.76964 5.1107 1.53699 5.20059 1.36547 5.36043C1.19396 5.52027 1.09761 5.73699 1.09761 5.96295Z" fill="white"/>
</svg>
